<svg xmlns='http://www.w3.org/2000/svg' viewBox="0 0 286.345 569.809">
<path d="M1.44,29.7865L29.7865,29.7865L29.7865,1.44L1.44,1.44Z"  style="fill:rgb(193,193,193);stroke-width:1.44;stroke:rgb(0,0,0);" />
<path d="M29.7865,29.7865L58.1329,29.7865L58.1329,1.44L29.7865,1.44Z"  style="fill:rgb(193,193,193);stroke-width:1.44;stroke:rgb(0,0,0);" />
<path d="M58.1329,29.7865L86.4794,29.7865L86.4794,1.44L58.1329,1.44Z"  style="fill:rgb(193,193,193);stroke-width:1.44;stroke:rgb(0,0,0);" />
<path d="M86.4794,29.7865L114.826,29.7865L114.826,1.44L86.4794,1.44Z"  style="fill:rgb(193,193,193);stroke-width:1.44;stroke:rgb(0,0,0);" />
<path d="M114.826,29.7865L143.172,29.7865L143.172,1.44L114.826,1.44Z"  style="fill:rgb(193,193,193);stroke-width:1.44;stroke:rgb(0,0,0);" />
<path d="M143.172,29.7865L171.519,29.7865L171.519,1.44L143.172,1.44Z"  style="fill:rgb(193,193,193);stroke-width:1.44;stroke:rgb(0,0,0);" />
<path d="M171.519,29.7865L199.865,29.7865L199.865,1.44L171.519,1.44Z"  style="fill:rgb(193,193,193);stroke-width:1.44;stroke:rgb(0,0,0);" />
<path d="M199.865,29.7865L228.212,29.7865L228.212,1.44L199.865,1.44Z"  style="fill:rgb(193,193,193);stroke-width:1.44;stroke:rgb(0,0,0);" />
<path d="M228.212,29.7865L256.558,29.7865L256.558,1.44L228.212,1.44Z"  style="fill:rgb(193,193,193);stroke-width:1.44;stroke:rgb(0,0,0);" />
<path d="M256.558,29.7865L284.905,29.7865L284.905,1.44L256.558,1.44Z"  style="fill:rgb(193,193,193);stroke-width:1.44;stroke:rgb(0,0,0);" />
<path d="M1.44,58.1329L29.7865,58.1329L29.7865,29.7865L1.44,29.7865Z"  style="fill:rgb(193,193,193);stroke-width:1.44;stroke:rgb(0,0,0);" />
<path d="M29.7865,58.1329L58.1329,58.1329L58.1329,29.7865L29.7865,29.7865Z"  style="fill:rgb(193,193,193);stroke-width:1.44;stroke:rgb(0,0,0);" />
<path d="M58.1329,58.1329L86.4794,58.1329L86.4794,29.7865L58.1329,29.7865Z"  style="fill:rgb(193,193,193);stroke-width:1.44;stroke:rgb(0,0,0);" />
<path d="M86.4794,58.1329L114.826,58.1329L114.826,29.7865L86.4794,29.7865Z"  style="fill:rgb(193,193,193);stroke-width:1.44;stroke:rgb(0,0,0);" />
<path d="M114.826,58.1329L143.172,58.1329L143.172,29.7865L114.826,29.7865Z"  style="fill:rgb(193,193,193);stroke-width:1.44;stroke:rgb(0,0,0);" />
<path d="M143.172,58.1329L171.519,58.1329L171.519,29.7865L143.172,29.7865Z"  style="fill:rgb(193,193,193);stroke-width:1.44;stroke:rgb(0,0,0);" />
<path d="M171.519,58.1329L199.865,58.1329L199.865,29.7865L171.519,29.7865Z"  style="fill:rgb(193,193,193);stroke-width:1.44;stroke:rgb(0,0,0);" />
<path d="M199.865,58.1329L228.212,58.1329L228.212,29.7865L199.865,29.7865Z"  style="fill:rgb(193,193,193);stroke-width:1.44;stroke:rgb(0,0,0);" />
<path d="M228.212,58.1329L256.558,58.1329L256.558,29.7865L228.212,29.7865Z"  style="fill:rgb(193,193,193);stroke-width:1.44;stroke:rgb(0,0,0);" />
<path d="M256.558,58.1329L284.905,58.1329L284.905,29.7865L256.558,29.7865Z"  style="fill:rgb(193,193,193);stroke-width:1.44;stroke:rgb(0,0,0);" />
<path d="M1.44,86.4794L29.7865,86.4794L29.7865,58.1329L1.44,58.1329Z"  style="fill:rgb(193,193,193);stroke-width:1.44;stroke:rgb(0,0,0);" />
<path d="M29.7865,86.4794L58.1329,86.4794L58.1329,58.1329L29.7865,58.1329Z"  style="fill:rgb(193,193,193);stroke-width:1.44;stroke:rgb(0,0,0);" />
<path d="M58.1329,86.4794L86.4794,86.4794L86.4794,58.1329L58.1329,58.1329Z"  style="fill:rgb(193,193,193);stroke-width:1.44;stroke:rgb(0,0,0);" />
<path d="M86.4794,86.4794L114.826,86.4794L114.826,58.1329L86.4794,58.1329Z"  style="fill:rgb(193,193,193);stroke-width:1.44;stroke:rgb(0,0,0);" />
<path d="M114.826,86.4794L143.172,86.4794L143.172,58.1329L114.826,58.1329Z"  style="fill:rgb(193,193,193);stroke-width:1.44;stroke:rgb(0,0,0);" />
<path d="M143.172,86.4794L171.519,86.4794L171.519,58.1329L143.172,58.1329Z"  style="fill:rgb(193,193,193);stroke-width:1.44;stroke:rgb(0,0,0);" />
<path d="M171.519,86.4794L199.865,86.4794L199.865,58.1329L171.519,58.1329Z"  style="fill:rgb(193,193,193);stroke-width:1.44;stroke:rgb(0,0,0);" />
<path d="M199.865,86.4794L228.212,86.4794L228.212,58.1329L199.865,58.1329Z"  style="fill:rgb(193,193,193);stroke-width:1.44;stroke:rgb(0,0,0);" />
<path d="M228.212,86.4794L256.558,86.4794L256.558,58.1329L228.212,58.1329Z"  style="fill:rgb(193,193,193);stroke-width:1.44;stroke:rgb(0,0,0);" />
<path d="M256.558,86.4794L284.905,86.4794L284.905,58.1329L256.558,58.1329Z"  style="fill:rgb(193,193,193);stroke-width:1.44;stroke:rgb(0,0,0);" />
<path d="M1.44,114.826L29.7865,114.826L29.7865,86.4794L1.44,86.4794Z"  style="fill:rgb(193,193,193);stroke-width:1.44;stroke:rgb(0,0,0);" />
<path d="M29.7865,114.826L58.1329,114.826L58.1329,86.4794L29.7865,86.4794Z"  style="fill:rgb(193,193,193);stroke-width:1.44;stroke:rgb(0,0,0);" />
<path d="M58.1329,114.826L86.4794,114.826L86.4794,86.4794L58.1329,86.4794Z"  style="fill:rgb(193,193,193);stroke-width:1.44;stroke:rgb(0,0,0);" />
<path d="M86.4794,114.826L114.826,114.826L114.826,86.4794L86.4794,86.4794Z"  style="fill:rgb(193,193,193);stroke-width:1.44;stroke:rgb(0,0,0);" />
<path d="M114.826,114.826L143.172,114.826L143.172,86.4794L114.826,86.4794Z"  style="fill:rgb(193,193,193);stroke-width:1.44;stroke:rgb(0,0,0);" />
<path d="M143.172,114.826L171.519,114.826L171.519,86.4794L143.172,86.4794Z"  style="fill:rgb(193,193,193);stroke-width:1.44;stroke:rgb(0,0,0);" />
<path d="M171.519,114.826L199.865,114.826L199.865,86.4794L171.519,86.4794Z"  style="fill:rgb(193,193,193);stroke-width:1.44;stroke:rgb(0,0,0);" />
<path d="M199.865,114.826L228.212,114.826L228.212,86.4794L199.865,86.4794Z"  style="fill:rgb(193,193,193);stroke-width:1.44;stroke:rgb(0,0,0);" />
<path d="M228.212,114.826L256.558,114.826L256.558,86.4794L228.212,86.4794Z"  style="fill:rgb(193,193,193);stroke-width:1.44;stroke:rgb(0,0,0);" />
<path d="M256.558,114.826L284.905,114.826L284.905,86.4794L256.558,86.4794Z"  style="fill:rgb(193,193,193);stroke-width:1.44;stroke:rgb(0,0,0);" />
<path d="M1.44,143.172L29.7865,143.172L29.7865,114.826L1.44,114.826Z"  style="fill:rgb(193,193,193);stroke-width:1.44;stroke:rgb(0,0,0);" />
<path d="M29.7865,143.172L58.1329,143.172L58.1329,114.826L29.7865,114.826Z"  style="fill:rgb(193,193,193);stroke-width:1.44;stroke:rgb(0,0,0);" />
<path d="M58.1329,143.172L86.4794,143.172L86.4794,114.826L58.1329,114.826Z"  style="fill:rgb(193,193,193);stroke-width:1.44;stroke:rgb(0,0,0);" />
<path d="M86.4794,143.172L114.826,143.172L114.826,114.826L86.4794,114.826Z"  style="fill:rgb(193,193,193);stroke-width:1.44;stroke:rgb(0,0,0);" />
<path d="M114.826,143.172L143.172,143.172L143.172,114.826L114.826,114.826Z"  style="fill:rgb(193,193,193);stroke-width:1.44;stroke:rgb(0,0,0);" />
<path d="M143.172,143.172L171.519,143.172L171.519,114.826L143.172,114.826Z"  style="fill:rgb(193,193,193);stroke-width:1.44;stroke:rgb(0,0,0);" />
<path d="M171.519,143.172L199.865,143.172L199.865,114.826L171.519,114.826Z"  style="fill:rgb(193,193,193);stroke-width:1.44;stroke:rgb(0,0,0);" />
<path d="M199.865,143.172L228.212,143.172L228.212,114.826L199.865,114.826Z"  style="fill:rgb(193,193,193);stroke-width:1.44;stroke:rgb(0,0,0);" />
<path d="M228.212,143.172L256.558,143.172L256.558,114.826L228.212,114.826Z"  style="fill:rgb(193,193,193);stroke-width:1.44;stroke:rgb(0,0,0);" />
<path d="M256.558,143.172L284.905,143.172L284.905,114.826L256.558,114.826Z"  style="fill:rgb(193,193,193);stroke-width:1.44;stroke:rgb(0,0,0);" />
<path d="M1.44,171.519L29.7865,171.519L29.7865,143.172L1.44,143.172Z"  style="fill:rgb(193,193,193);stroke-width:1.44;stroke:rgb(0,0,0);" />
<path d="M29.7865,171.519L58.1329,171.519L58.1329,143.172L29.7865,143.172Z"  style="fill:rgb(193,193,193);stroke-width:1.44;stroke:rgb(0,0,0);" />
<path d="M58.1329,171.519L86.4794,171.519L86.4794,143.172L58.1329,143.172Z"  style="fill:rgb(193,193,193);stroke-width:1.44;stroke:rgb(0,0,0);" />
<path d="M86.4794,171.519L114.826,171.519L114.826,143.172L86.4794,143.172Z"  style="fill:rgb(193,193,193);stroke-width:1.44;stroke:rgb(0,0,0);" />
<path d="M114.826,171.519L143.172,171.519L143.172,143.172L114.826,143.172Z"  style="fill:rgb(193,193,193);stroke-width:1.44;stroke:rgb(0,0,0);" />
<path d="M143.172,171.519L171.519,171.519L171.519,143.172L143.172,143.172Z"  style="fill:rgb(193,193,193);stroke-width:1.44;stroke:rgb(0,0,0);" />
<path d="M171.519,171.519L199.865,171.519L199.865,143.172L171.519,143.172Z"  style="fill:rgb(193,193,193);stroke-width:1.44;stroke:rgb(0,0,0);" />
<path d="M199.865,171.519L228.212,171.519L228.212,143.172L199.865,143.172Z"  style="fill:rgb(193,193,193);stroke-width:1.44;stroke:rgb(0,0,0);" />
<path d="M228.212,171.519L256.558,171.519L256.558,143.172L228.212,143.172Z"  style="fill:rgb(193,193,193);stroke-width:1.44;stroke:rgb(0,0,0);" />
<path d="M256.558,171.519L284.905,171.519L284.905,143.172L256.558,143.172Z"  style="fill:rgb(193,193,193);stroke-width:1.44;stroke:rgb(0,0,0);" />
<path d="M1.44,199.865L29.7865,199.865L29.7865,171.519L1.44,171.519Z"  style="fill:rgb(193,193,193);stroke-width:1.44;stroke:rgb(0,0,0);" />
<path d="M29.7865,199.865L58.1329,199.865L58.1329,171.519L29.7865,171.519Z"  style="fill:rgb(193,193,193);stroke-width:1.44;stroke:rgb(0,0,0);" />
<path d="M58.1329,199.865L86.4794,199.865L86.4794,171.519L58.1329,171.519Z"  style="fill:rgb(193,193,193);stroke-width:1.44;stroke:rgb(0,0,0);" />
<path d="M86.4794,199.865L114.826,199.865L114.826,171.519L86.4794,171.519Z"  style="fill:rgb(193,193,193);stroke-width:1.44;stroke:rgb(0,0,0);" />
<path d="M114.826,199.865L143.172,199.865L143.172,171.519L114.826,171.519Z"  style="fill:rgb(193,193,193);stroke-width:1.44;stroke:rgb(0,0,0);" />
<path d="M143.172,199.865L171.519,199.865L171.519,171.519L143.172,171.519Z"  style="fill:rgb(193,193,193);stroke-width:1.44;stroke:rgb(0,0,0);" />
<path d="M171.519,199.865L199.865,199.865L199.865,171.519L171.519,171.519Z"  style="fill:rgb(193,193,193);stroke-width:1.44;stroke:rgb(0,0,0);" />
<path d="M199.865,199.865L228.212,199.865L228.212,171.519L199.865,171.519Z"  style="fill:rgb(193,193,193);stroke-width:1.44;stroke:rgb(0,0,0);" />
<path d="M228.212,199.865L256.558,199.865L256.558,171.519L228.212,171.519Z"  style="fill:rgb(193,193,193);stroke-width:1.44;stroke:rgb(0,0,0);" />
<path d="M256.558,199.865L284.905,199.865L284.905,171.519L256.558,171.519Z"  style="fill:rgb(193,193,193);stroke-width:1.44;stroke:rgb(0,0,0);" />
<path d="M1.44,228.212L29.7865,228.212L29.7865,199.865L1.44,199.865Z"  style="fill:rgb(193,193,193);stroke-width:1.44;stroke:rgb(0,0,0);" />
<path d="M29.7865,228.212L58.1329,228.212L58.1329,199.865L29.7865,199.865Z"  style="fill:rgb(193,193,193);stroke-width:1.44;stroke:rgb(0,0,0);" />
<path d="M58.1329,228.212L86.4794,228.212L86.4794,199.865L58.1329,199.865Z"  style="fill:rgb(193,193,193);stroke-width:1.44;stroke:rgb(0,0,0);" />
<path d="M86.4794,228.212L114.826,228.212L114.826,199.865L86.4794,199.865Z"  style="fill:rgb(193,193,193);stroke-width:1.44;stroke:rgb(0,0,0);" />
<path d="M114.826,228.212L143.172,228.212L143.172,199.865L114.826,199.865Z"  style="fill:rgb(193,193,193);stroke-width:1.44;stroke:rgb(0,0,0);" />
<path d="M143.172,228.212L171.519,228.212L171.519,199.865L143.172,199.865Z"  style="fill:rgb(193,193,193);stroke-width:1.44;stroke:rgb(0,0,0);" />
<path d="M171.519,228.212L199.865,228.212L199.865,199.865L171.519,199.865Z"  style="fill:rgb(193,193,193);stroke-width:1.44;stroke:rgb(0,0,0);" />
<path d="M199.865,228.212L228.212,228.212L228.212,199.865L199.865,199.865Z"  style="fill:rgb(193,193,193);stroke-width:1.44;stroke:rgb(0,0,0);" />
<path d="M228.212,228.212L256.558,228.212L256.558,199.865L228.212,199.865Z"  style="fill:rgb(193,193,193);stroke-width:1.44;stroke:rgb(0,0,0);" />
<path d="M256.558,228.212L284.905,228.212L284.905,199.865L256.558,199.865Z"  style="fill:rgb(193,193,193);stroke-width:1.44;stroke:rgb(0,0,0);" />
<path d="M1.44,256.558L29.7865,256.558L29.7865,228.212L1.44,228.212Z"  style="fill:rgb(193,193,193);stroke-width:1.44;stroke:rgb(0,0,0);" />
<path d="M29.7865,256.558L58.1329,256.558L58.1329,228.212L29.7865,228.212Z"  style="fill:rgb(193,193,193);stroke-width:1.44;stroke:rgb(0,0,0);" />
<path d="M58.1329,256.558L86.4794,256.558L86.4794,228.212L58.1329,228.212Z"  style="fill:rgb(193,193,193);stroke-width:1.44;stroke:rgb(0,0,0);" />
<path d="M86.4794,256.558L114.826,256.558L114.826,228.212L86.4794,228.212Z"  style="fill:rgb(193,193,193);stroke-width:1.44;stroke:rgb(0,0,0);" />
<path d="M114.826,256.558L143.172,256.558L143.172,228.212L114.826,228.212Z"  style="fill:rgb(193,193,193);stroke-width:1.44;stroke:rgb(0,0,0);" />
<path d="M143.172,256.558L171.519,256.558L171.519,228.212L143.172,228.212Z"  style="fill:rgb(193,193,193);stroke-width:1.44;stroke:rgb(0,0,0);" />
<path d="M171.519,256.558L199.865,256.558L199.865,228.212L171.519,228.212Z"  style="fill:rgb(193,193,193);stroke-width:1.44;stroke:rgb(0,0,0);" />
<path d="M199.865,256.558L228.212,256.558L228.212,228.212L199.865,228.212Z"  style="fill:rgb(193,193,193);stroke-width:1.44;stroke:rgb(0,0,0);" />
<path d="M228.212,256.558L256.558,256.558L256.558,228.212L228.212,228.212Z"  style="fill:rgb(193,193,193);stroke-width:1.44;stroke:rgb(0,0,0);" />
<path d="M256.558,256.558L284.905,256.558L284.905,228.212L256.558,228.212Z"  style="fill:rgb(193,193,193);stroke-width:1.44;stroke:rgb(0,0,0);" />
<path d="M1.44,284.905L29.7865,284.905L29.7865,256.558L1.44,256.558Z"  style="fill:rgb(193,193,193);stroke-width:1.44;stroke:rgb(0,0,0);" />
<path d="M29.7865,284.905L58.1329,284.905L58.1329,256.558L29.7865,256.558Z"  style="fill:rgb(193,193,193);stroke-width:1.44;stroke:rgb(0,0,0);" />
<path d="M58.1329,284.905L86.4794,284.905L86.4794,256.558L58.1329,256.558Z"  style="fill:rgb(193,193,193);stroke-width:1.44;stroke:rgb(0,0,0);" />
<path d="M86.4794,284.905L114.826,284.905L114.826,256.558L86.4794,256.558Z"  style="fill:rgb(193,193,193);stroke-width:1.44;stroke:rgb(0,0,0);" />
<path d="M114.826,284.905L143.172,284.905L143.172,256.558L114.826,256.558Z"  style="fill:rgb(193,193,193);stroke-width:1.44;stroke:rgb(0,0,0);" />
<path d="M143.172,284.905L171.519,284.905L171.519,256.558L143.172,256.558Z"  style="fill:rgb(193,193,193);stroke-width:1.44;stroke:rgb(0,0,0);" />
<path d="M171.519,284.905L199.865,284.905L199.865,256.558L171.519,256.558Z"  style="fill:rgb(193,193,193);stroke-width:1.44;stroke:rgb(0,0,0);" />
<path d="M199.865,284.905L228.212,284.905L228.212,256.558L199.865,256.558Z"  style="fill:rgb(193,193,193);stroke-width:1.44;stroke:rgb(0,0,0);" />
<path d="M228.212,284.905L256.558,284.905L256.558,256.558L228.212,256.558Z"  style="fill:rgb(193,193,193);stroke-width:1.44;stroke:rgb(0,0,0);" />
<path d="M256.558,284.905L284.905,284.905L284.905,256.558L256.558,256.558Z"  style="fill:rgb(193,193,193);stroke-width:1.44;stroke:rgb(0,0,0);" />
<path d="M1.44,313.251L29.7865,313.251L29.7865,284.905L1.44,284.905Z"  style="fill:rgb(193,193,193);stroke-width:1.44;stroke:rgb(0,0,0);" />
<path d="M29.7865,313.251L58.1329,313.251L58.1329,284.905L29.7865,284.905Z"  style="fill:rgb(193,193,193);stroke-width:1.44;stroke:rgb(0,0,0);" />
<path d="M58.1329,313.251L86.4794,313.251L86.4794,284.905L58.1329,284.905Z"  style="fill:rgb(193,193,193);stroke-width:1.44;stroke:rgb(0,0,0);" />
<path d="M86.4794,313.251L114.826,313.251L114.826,284.905L86.4794,284.905Z"  style="fill:rgb(193,193,193);stroke-width:1.44;stroke:rgb(0,0,0);" />
<path d="M114.826,313.251L143.172,313.251L143.172,284.905L114.826,284.905Z"  style="fill:rgb(193,193,193);stroke-width:1.44;stroke:rgb(0,0,0);" />
<path d="M143.172,313.251L171.519,313.251L171.519,284.905L143.172,284.905Z"  style="fill:rgb(193,193,193);stroke-width:1.44;stroke:rgb(0,0,0);" />
<path d="M171.519,313.251L199.865,313.251L199.865,284.905L171.519,284.905Z"  style="fill:rgb(193,193,193);stroke-width:1.44;stroke:rgb(0,0,0);" />
<path d="M199.865,313.251L228.212,313.251L228.212,284.905L199.865,284.905Z"  style="fill:rgb(193,193,193);stroke-width:1.44;stroke:rgb(0,0,0);" />
<path d="M228.212,313.251L256.558,313.251L256.558,284.905L228.212,284.905Z"  style="fill:rgb(193,193,193);stroke-width:1.44;stroke:rgb(0,0,0);" />
<path d="M256.558,313.251L284.905,313.251L284.905,284.905L256.558,284.905Z"  style="fill:rgb(193,193,193);stroke-width:1.44;stroke:rgb(0,0,0);" />
<path d="M1.44,341.597L29.7865,341.597L29.7865,313.251L1.44,313.251Z"  style="fill:rgb(193,193,193);stroke-width:1.44;stroke:rgb(0,0,0);" />
<path d="M29.7865,341.597L58.1329,341.597L58.1329,313.251L29.7865,313.251Z"  style="fill:rgb(193,193,193);stroke-width:1.44;stroke:rgb(0,0,0);" />
<path d="M58.1329,341.597L86.4794,341.597L86.4794,313.251L58.1329,313.251Z"  style="fill:rgb(193,193,193);stroke-width:1.44;stroke:rgb(0,0,0);" />
<path d="M86.4794,341.597L114.826,341.597L114.826,313.251L86.4794,313.251Z"  style="fill:rgb(193,193,193);stroke-width:1.44;stroke:rgb(0,0,0);" />
<path d="M114.826,341.597L143.172,341.597L143.172,313.251L114.826,313.251Z"  style="fill:rgb(193,193,193);stroke-width:1.44;stroke:rgb(0,0,0);" />
<path d="M143.172,341.597L171.519,341.597L171.519,313.251L143.172,313.251Z"  style="fill:rgb(193,193,193);stroke-width:1.44;stroke:rgb(0,0,0);" />
<path d="M171.519,341.597L199.865,341.597L199.865,313.251L171.519,313.251Z"  style="fill:rgb(193,193,193);stroke-width:1.44;stroke:rgb(0,0,0);" />
<path d="M199.865,341.597L228.212,341.597L228.212,313.251L199.865,313.251Z"  style="fill:rgb(193,193,193);stroke-width:1.44;stroke:rgb(0,0,0);" />
<path d="M228.212,341.597L256.558,341.597L256.558,313.251L228.212,313.251Z"  style="fill:rgb(193,193,193);stroke-width:1.44;stroke:rgb(0,0,0);" />
<path d="M256.558,341.597L284.905,341.597L284.905,313.251L256.558,313.251Z"  style="fill:rgb(193,193,193);stroke-width:1.44;stroke:rgb(0,0,0);" />
<path d="M1.44,369.944L29.7865,369.944L29.7865,341.597L1.44,341.597Z"  style="fill:rgb(193,193,193);stroke-width:1.44;stroke:rgb(0,0,0);" />
<path d="M29.7865,369.944L58.1329,369.944L58.1329,341.597L29.7865,341.597Z"  style="fill:rgb(193,193,193);stroke-width:1.44;stroke:rgb(0,0,0);" />
<path d="M58.1329,369.944L86.4794,369.944L86.4794,341.597L58.1329,341.597Z"  style="fill:rgb(193,193,193);stroke-width:1.44;stroke:rgb(0,0,0);" />
<path d="M86.4794,369.944L114.826,369.944L114.826,341.597L86.4794,341.597Z"  style="fill:rgb(193,193,193);stroke-width:1.44;stroke:rgb(0,0,0);" />
<path d="M114.826,369.944L143.172,369.944L143.172,341.597L114.826,341.597Z"  style="fill:rgb(193,193,193);stroke-width:1.44;stroke:rgb(0,0,0);" />
<path d="M143.172,369.944L171.519,369.944L171.519,341.597L143.172,341.597Z"  style="fill:rgb(193,193,193);stroke-width:1.44;stroke:rgb(0,0,0);" />
<path d="M171.519,369.944L199.865,369.944L199.865,341.597L171.519,341.597Z"  style="fill:rgb(193,193,193);stroke-width:1.44;stroke:rgb(0,0,0);" />
<path d="M199.865,369.944L228.212,369.944L228.212,341.597L199.865,341.597Z"  style="fill:rgb(193,193,193);stroke-width:1.44;stroke:rgb(0,0,0);" />
<path d="M228.212,369.944L256.558,369.944L256.558,341.597L228.212,341.597Z"  style="fill:rgb(193,193,193);stroke-width:1.44;stroke:rgb(0,0,0);" />
<path d="M256.558,369.944L284.905,369.944L284.905,341.597L256.558,341.597Z"  style="fill:rgb(193,193,193);stroke-width:1.44;stroke:rgb(0,0,0);" />
<path d="M1.44,398.29L29.7865,398.29L29.7865,369.944L1.44,369.944Z"  style="fill:rgb(193,193,193);stroke-width:1.44;stroke:rgb(0,0,0);" />
<path d="M29.7865,398.29L58.1329,398.29L58.1329,369.944L29.7865,369.944Z"  style="fill:rgb(193,193,193);stroke-width:1.44;stroke:rgb(0,0,0);" />
<path d="M58.1329,398.29L86.4794,398.29L86.4794,369.944L58.1329,369.944Z"  style="fill:rgb(193,193,193);stroke-width:1.44;stroke:rgb(0,0,0);" />
<path d="M86.4794,398.29L114.826,398.29L114.826,369.944L86.4794,369.944Z"  style="fill:rgb(193,193,193);stroke-width:1.44;stroke:rgb(0,0,0);" />
<path d="M114.826,398.29L143.172,398.29L143.172,369.944L114.826,369.944Z"  style="fill:rgb(193,193,193);stroke-width:1.44;stroke:rgb(0,0,0);" />
<path d="M143.172,398.29L171.519,398.29L171.519,369.944L143.172,369.944Z"  style="fill:rgb(193,193,193);stroke-width:1.44;stroke:rgb(0,0,0);" />
<path d="M171.519,398.29L199.865,398.29L199.865,369.944L171.519,369.944Z"  style="fill:rgb(193,193,193);stroke-width:1.44;stroke:rgb(0,0,0);" />
<path d="M199.865,398.29L228.212,398.29L228.212,369.944L199.865,369.944Z"  style="fill:rgb(193,193,193);stroke-width:1.44;stroke:rgb(0,0,0);" />
<path d="M228.212,398.29L256.558,398.29L256.558,369.944L228.212,369.944Z"  style="fill:rgb(193,193,193);stroke-width:1.44;stroke:rgb(0,0,0);" />
<path d="M256.558,398.29L284.905,398.29L284.905,369.944L256.558,369.944Z"  style="fill:rgb(193,193,193);stroke-width:1.44;stroke:rgb(0,0,0);" />
<path d="M1.44,426.637L29.7865,426.637L29.7865,398.29L1.44,398.29Z"  style="fill:rgb(193,193,193);stroke-width:1.44;stroke:rgb(0,0,0);" />
<path d="M29.7865,426.637L58.1329,426.637L58.1329,398.29L29.7865,398.29Z"  style="fill:rgb(193,193,193);stroke-width:1.44;stroke:rgb(0,0,0);" />
<path d="M58.1329,426.637L86.4794,426.637L86.4794,398.29L58.1329,398.29Z"  style="fill:rgb(193,193,193);stroke-width:1.44;stroke:rgb(0,0,0);" />
<path d="M86.4794,426.637L114.826,426.637L114.826,398.29L86.4794,398.29Z"  style="fill:rgb(193,193,193);stroke-width:1.44;stroke:rgb(0,0,0);" />
<path d="M114.826,426.637L143.172,426.637L143.172,398.29L114.826,398.29Z"  style="fill:rgb(193,193,193);stroke-width:1.44;stroke:rgb(0,0,0);" />
<path d="M143.172,426.637L171.519,426.637L171.519,398.29L143.172,398.29Z"  style="fill:rgb(193,193,193);stroke-width:1.44;stroke:rgb(0,0,0);" />
<path d="M171.519,426.637L199.865,426.637L199.865,398.29L171.519,398.29Z"  style="fill:rgb(193,193,193);stroke-width:1.44;stroke:rgb(0,0,0);" />
<path d="M199.865,426.637L228.212,426.637L228.212,398.29L199.865,398.29Z"  style="fill:rgb(193,193,193);stroke-width:1.44;stroke:rgb(0,0,0);" />
<path d="M228.212,426.637L256.558,426.637L256.558,398.29L228.212,398.29Z"  style="fill:rgb(193,193,193);stroke-width:1.44;stroke:rgb(0,0,0);" />
<path d="M256.558,426.637L284.905,426.637L284.905,398.29L256.558,398.29Z"  style="fill:rgb(193,193,193);stroke-width:1.44;stroke:rgb(0,0,0);" />
<path d="M1.44,454.983L29.7865,454.983L29.7865,426.637L1.44,426.637Z"  style="fill:rgb(193,193,193);stroke-width:1.44;stroke:rgb(0,0,0);" />
<path d="M29.7865,454.983L58.1329,454.983L58.1329,426.637L29.7865,426.637Z"  style="fill:rgb(193,193,193);stroke-width:1.44;stroke:rgb(0,0,0);" />
<path d="M58.1329,454.983L86.4794,454.983L86.4794,426.637L58.1329,426.637Z"  style="fill:rgb(193,193,193);stroke-width:1.44;stroke:rgb(0,0,0);" />
<path d="M86.4794,454.983L114.826,454.983L114.826,426.637L86.4794,426.637Z"  style="fill:rgb(193,193,193);stroke-width:1.44;stroke:rgb(0,0,0);" />
<path d="M114.826,454.983L143.172,454.983L143.172,426.637L114.826,426.637Z"  style="fill:rgb(193,193,193);stroke-width:1.44;stroke:rgb(0,0,0);" />
<path d="M143.172,454.983L171.519,454.983L171.519,426.637L143.172,426.637Z"  style="fill:rgb(193,193,193);stroke-width:1.44;stroke:rgb(0,0,0);" />
<path d="M171.519,454.983L199.865,454.983L199.865,426.637L171.519,426.637Z"  style="fill:rgb(193,193,193);stroke-width:1.44;stroke:rgb(0,0,0);" />
<path d="M199.865,454.983L228.212,454.983L228.212,426.637L199.865,426.637Z"  style="fill:rgb(193,193,193);stroke-width:1.44;stroke:rgb(0,0,0);" />
<path d="M228.212,454.983L256.558,454.983L256.558,426.637L228.212,426.637Z"  style="fill:rgb(193,193,193);stroke-width:1.44;stroke:rgb(0,0,0);" />
<path d="M256.558,454.983L284.905,454.983L284.905,426.637L256.558,426.637Z"  style="fill:rgb(193,193,193);stroke-width:1.44;stroke:rgb(0,0,0);" />
<path d="M1.44,483.33L29.7865,483.33L29.7865,454.983L1.44,454.983Z"  style="fill:rgb(193,193,193);stroke-width:1.44;stroke:rgb(0,0,0);" />
<path d="M29.7865,483.33L58.1329,483.33L58.1329,454.983L29.7865,454.983Z"  style="fill:rgb(241,54,54);stroke-width:1.44;stroke:rgb(0,0,0);" />
<path d="M58.1329,483.33L86.4794,483.33L86.4794,454.983L58.1329,454.983Z"  style="fill:rgb(193,193,193);stroke-width:1.44;stroke:rgb(0,0,0);" />
<path d="M86.4794,483.33L114.826,483.33L114.826,454.983L86.4794,454.983Z"  style="fill:rgb(193,193,193);stroke-width:1.44;stroke:rgb(0,0,0);" />
<path d="M114.826,483.33L143.172,483.33L143.172,454.983L114.826,454.983Z"  style="fill:rgb(193,193,193);stroke-width:1.44;stroke:rgb(0,0,0);" />
<path d="M143.172,483.33L171.519,483.33L171.519,454.983L143.172,454.983Z"  style="fill:rgb(103,237,245);stroke-width:1.44;stroke:rgb(0,0,0);" />
<path d="M171.519,483.33L199.865,483.33L199.865,454.983L171.519,454.983Z"  style="fill:rgb(193,193,193);stroke-width:1.44;stroke:rgb(0,0,0);" />
<path d="M199.865,483.33L228.212,483.33L228.212,454.983L199.865,454.983Z"  style="fill:rgb(135,206,235);stroke-width:1.44;stroke:rgb(0,0,0);" />
<path d="M228.212,483.33L256.558,483.33L256.558,454.983L228.212,454.983Z"  style="fill:rgb(135,206,235);stroke-width:1.44;stroke:rgb(0,0,0);" />
<path d="M256.558,483.33L284.905,483.33L284.905,454.983L256.558,454.983Z"  style="fill:rgb(135,206,235);stroke-width:1.44;stroke:rgb(0,0,0);" />
<path d="M1.44,511.676L29.7865,511.676L29.7865,483.33L1.44,483.33Z"  style="fill:rgb(241,54,54);stroke-width:1.44;stroke:rgb(0,0,0);" />
<path d="M29.7865,511.676L58.1329,511.676L58.1329,483.33L29.7865,483.33Z"  style="fill:rgb(241,54,54);stroke-width:1.44;stroke:rgb(0,0,0);" />
<path d="M58.1329,511.676L86.4794,511.676L86.4794,483.33L58.1329,483.33Z"  style="fill:rgb(57,229,114);stroke-width:1.44;stroke:rgb(0,0,0);" />
<path d="M86.4794,511.676L114.826,511.676L114.826,483.33L86.4794,483.33Z"  style="fill:rgb(193,193,193);stroke-width:1.44;stroke:rgb(0,0,0);" />
<path d="M114.826,511.676L143.172,511.676L143.172,483.33L114.826,483.33Z"  style="fill:rgb(193,193,193);stroke-width:1.44;stroke:rgb(0,0,0);" />
<path d="M143.172,511.676L171.519,511.676L171.519,483.33L143.172,483.33Z"  style="fill:rgb(103,237,245);stroke-width:1.44;stroke:rgb(0,0,0);" />
<path d="M171.519,511.676L199.865,511.676L199.865,483.33L171.519,483.33Z"  style="fill:rgb(193,193,193);stroke-width:1.44;stroke:rgb(0,0,0);" />
<path d="M199.865,511.676L228.212,511.676L228.212,483.33L199.865,483.33Z"  style="fill:rgb(255,242,35);stroke-width:1.44;stroke:rgb(0,0,0);" />
<path d="M228.212,511.676L256.558,511.676L256.558,483.33L228.212,483.33Z"  style="fill:rgb(255,242,35);stroke-width:1.44;stroke:rgb(0,0,0);" />
<path d="M256.558,511.676L284.905,511.676L284.905,483.33L256.558,483.33Z"  style="fill:rgb(135,206,235);stroke-width:1.44;stroke:rgb(0,0,0);" />
<path d="M1.44,540.023L29.7865,540.023L29.7865,511.676L1.44,511.676Z"  style="fill:rgb(241,54,54);stroke-width:1.44;stroke:rgb(0,0,0);" />
<path d="M29.7865,540.023L58.1329,540.023L58.1329,511.676L29.7865,511.676Z"  style="fill:rgb(201,54,241);stroke-width:1.44;stroke:rgb(0,0,0);" />
<path d="M58.1329,540.023L86.4794,540.023L86.4794,511.676L58.1329,511.676Z"  style="fill:rgb(57,229,114);stroke-width:1.44;stroke:rgb(0,0,0);" />
<path d="M86.4794,540.023L114.826,540.023L114.826,511.676L86.4794,511.676Z"  style="fill:rgb(57,229,114);stroke-width:1.44;stroke:rgb(0,0,0);" />
<path d="M114.826,540.023L143.172,540.023L143.172,511.676L114.826,511.676Z"  style="fill:rgb(193,193,193);stroke-width:1.44;stroke:rgb(0,0,0);" />
<path d="M143.172,540.023L171.519,540.023L171.519,511.676L143.172,511.676Z"  style="fill:rgb(103,237,245);stroke-width:1.44;stroke:rgb(0,0,0);" />
<path d="M171.519,540.023L199.865,540.023L199.865,511.676L171.519,511.676Z"  style="fill:rgb(193,193,193);stroke-width:1.44;stroke:rgb(0,0,0);" />
<path d="M199.865,540.023L228.212,540.023L228.212,511.676L199.865,511.676Z"  style="fill:rgb(255,242,35);stroke-width:1.44;stroke:rgb(0,0,0);" />
<path d="M228.212,540.023L256.558,540.023L256.558,511.676L228.212,511.676Z"  style="fill:rgb(255,242,35);stroke-width:1.44;stroke:rgb(0,0,0);" />
<path d="M256.558,540.023L284.905,540.023L284.905,511.676L256.558,511.676Z"  style="fill:rgb(251,187,17);stroke-width:1.44;stroke:rgb(0,0,0);" />
<path d="M1.44,568.369L29.7865,568.369L29.7865,540.023L1.44,540.023Z"  style="fill:rgb(201,54,241);stroke-width:1.44;stroke:rgb(0,0,0);" />
<path d="M29.7865,568.369L58.1329,568.369L58.1329,540.023L29.7865,540.023Z"  style="fill:rgb(201,54,241);stroke-width:1.44;stroke:rgb(0,0,0);" />
<path d="M58.1329,568.369L86.4794,568.369L86.4794,540.023L58.1329,540.023Z"  style="fill:rgb(201,54,241);stroke-width:1.44;stroke:rgb(0,0,0);" />
<path d="M86.4794,568.369L114.826,568.369L114.826,540.023L86.4794,540.023Z"  style="fill:rgb(57,229,114);stroke-width:1.44;stroke:rgb(0,0,0);" />
<path d="M114.826,568.369L143.172,568.369L143.172,540.023L114.826,540.023Z"  style="fill:rgb(193,193,193);stroke-width:1.44;stroke:rgb(0,0,0);" />
<path d="M143.172,568.369L171.519,568.369L171.519,540.023L143.172,540.023Z"  style="fill:rgb(103,237,245);stroke-width:1.44;stroke:rgb(0,0,0);" />
<path d="M171.519,568.369L199.865,568.369L199.865,540.023L171.519,540.023Z"  style="fill:rgb(193,193,193);stroke-width:1.44;stroke:rgb(0,0,0);" />
<path d="M199.865,568.369L228.212,568.369L228.212,540.023L199.865,540.023Z"  style="fill:rgb(251,187,17);stroke-width:1.44;stroke:rgb(0,0,0);" />
<path d="M228.212,568.369L256.558,568.369L256.558,540.023L228.212,540.023Z"  style="fill:rgb(251,187,17);stroke-width:1.44;stroke:rgb(0,0,0);" />
<path d="M256.558,568.369L284.905,568.369L284.905,540.023L256.558,540.023Z"  style="fill:rgb(251,187,17);stroke-width:1.44;stroke:rgb(0,0,0);" />
</svg>
