<svg xmlns='http://www.w3.org/2000/svg' viewBox="0 0 174.399 231.092">
<path d="M2.16,58.8529L58.8529,58.8529L58.8529,2.16L2.16,2.16Z"  style="fill:rgb(57,229,114);stroke-width:2.16;stroke:rgb(0,0,0);" />
<path d="M58.8529,58.8529L115.546,58.8529L115.546,2.16L58.8529,2.16Z"  style="fill:rgb(251,187,17);stroke-width:2.16;stroke:rgb(0,0,0);" />
<path d="M115.546,58.8529L172.239,58.8529L172.239,2.16L115.546,2.16Z"  style="fill:rgb(251,187,17);stroke-width:2.16;stroke:rgb(0,0,0);" />
<path d="M2.16,115.546L58.8529,115.546L58.8529,58.8529L2.16,58.8529Z"  style="fill:rgb(57,229,114);stroke-width:2.16;stroke:rgb(0,0,0);" />
<path d="M58.8529,115.546L115.546,115.546L115.546,58.8529L58.8529,58.8529Z"  style="fill:rgb(57,229,114);stroke-width:2.16;stroke:rgb(0,0,0);" />
<path d="M115.546,115.546L172.239,115.546L172.239,58.8529L115.546,58.8529Z"  style="fill:rgb(251,187,17);stroke-width:2.16;stroke:rgb(0,0,0);" />
<path d="M2.16,172.239L58.8529,172.239L58.8529,115.546L2.16,115.546Z"  style="fill:rgb(135,206,235);stroke-width:2.16;stroke:rgb(0,0,0);" />
<path d="M58.8529,172.239L115.546,172.239L115.546,115.546L58.8529,115.546Z"  style="fill:rgb(57,229,114);stroke-width:2.16;stroke:rgb(0,0,0);" />
<path d="M115.546,172.239L172.239,172.239L172.239,115.546L115.546,115.546Z"  style="fill:rgb(251,187,17);stroke-width:2.16;stroke:rgb(0,0,0);" />
<path d="M2.16,228.932L58.8529,228.932L58.8529,172.239L2.16,172.239Z"  style="fill:rgb(135,206,235);stroke-width:2.16;stroke:rgb(0,0,0);" />
<path d="M58.8529,228.932L115.546,228.932L115.546,172.239L58.8529,172.239Z"  style="fill:rgb(135,206,235);stroke-width:2.16;stroke:rgb(0,0,0);" />
<path d="M115.546,228.932L172.239,228.932L172.239,172.239L115.546,172.239Z"  style="fill:rgb(135,206,235);stroke-width:2.16;stroke:rgb(0,0,0);" />
</svg>
