<svg xmlns='http://www.w3.org/2000/svg' viewBox="0 0 292.32 580.32">
<path d="M2.16,30.96L30.96,30.96L30.96,2.16L2.16,2.16Z"  style="fill:rgb(193,193,193);stroke-width:2.16;stroke:rgb(0,0,0);" />
<path d="M30.96,30.96L59.76,30.96L59.76,2.16L30.96,2.16Z"  style="fill:rgb(193,193,193);stroke-width:2.16;stroke:rgb(0,0,0);" />
<path d="M59.76,30.96L88.56,30.96L88.56,2.16L59.76,2.16Z"  style="fill:rgb(193,193,193);stroke-width:2.16;stroke:rgb(0,0,0);" />
<path d="M88.56,30.96L117.36,30.96L117.36,2.16L88.56,2.16Z"  style="fill:rgb(193,193,193);stroke-width:2.16;stroke:rgb(0,0,0);" />
<path d="M117.36,30.96L146.16,30.96L146.16,2.16L117.36,2.16Z"  style="fill:rgb(193,193,193);stroke-width:2.16;stroke:rgb(0,0,0);" />
<path d="M146.16,30.96L174.96,30.96L174.96,2.16L146.16,2.16Z"  style="fill:rgb(193,193,193);stroke-width:2.16;stroke:rgb(0,0,0);" />
<path d="M174.96,30.96L203.76,30.96L203.76,2.16L174.96,2.16Z"  style="fill:rgb(193,193,193);stroke-width:2.16;stroke:rgb(0,0,0);" />
<path d="M203.76,30.96L232.56,30.96L232.56,2.16L203.76,2.16Z"  style="fill:rgb(193,193,193);stroke-width:2.16;stroke:rgb(0,0,0);" />
<path d="M232.56,30.96L261.36,30.96L261.36,2.16L232.56,2.16Z"  style="fill:rgb(193,193,193);stroke-width:2.16;stroke:rgb(0,0,0);" />
<path d="M261.36,30.96L290.16,30.96L290.16,2.16L261.36,2.16Z"  style="fill:rgb(193,193,193);stroke-width:2.16;stroke:rgb(0,0,0);" />
<path d="M2.16,59.76L30.96,59.76L30.96,30.96L2.16,30.96Z"  style="fill:rgb(193,193,193);stroke-width:2.16;stroke:rgb(0,0,0);" />
<path d="M30.96,59.76L59.76,59.76L59.76,30.96L30.96,30.96Z"  style="fill:rgb(193,193,193);stroke-width:2.16;stroke:rgb(0,0,0);" />
<path d="M59.76,59.76L88.56,59.76L88.56,30.96L59.76,30.96Z"  style="fill:rgb(193,193,193);stroke-width:2.16;stroke:rgb(0,0,0);" />
<path d="M88.56,59.76L117.36,59.76L117.36,30.96L88.56,30.96Z"  style="fill:rgb(193,193,193);stroke-width:2.16;stroke:rgb(0,0,0);" />
<path d="M117.36,59.76L146.16,59.76L146.16,30.96L117.36,30.96Z"  style="fill:rgb(193,193,193);stroke-width:2.16;stroke:rgb(0,0,0);" />
<path d="M146.16,59.76L174.96,59.76L174.96,30.96L146.16,30.96Z"  style="fill:rgb(193,193,193);stroke-width:2.16;stroke:rgb(0,0,0);" />
<path d="M174.96,59.76L203.76,59.76L203.76,30.96L174.96,30.96Z"  style="fill:rgb(193,193,193);stroke-width:2.16;stroke:rgb(0,0,0);" />
<path d="M203.76,59.76L232.56,59.76L232.56,30.96L203.76,30.96Z"  style="fill:rgb(193,193,193);stroke-width:2.16;stroke:rgb(0,0,0);" />
<path d="M232.56,59.76L261.36,59.76L261.36,30.96L232.56,30.96Z"  style="fill:rgb(193,193,193);stroke-width:2.16;stroke:rgb(0,0,0);" />
<path d="M261.36,59.76L290.16,59.76L290.16,30.96L261.36,30.96Z"  style="fill:rgb(193,193,193);stroke-width:2.16;stroke:rgb(0,0,0);" />
<path d="M2.16,88.56L30.96,88.56L30.96,59.76L2.16,59.76Z"  style="fill:rgb(193,193,193);stroke-width:2.16;stroke:rgb(0,0,0);" />
<path d="M30.96,88.56L59.76,88.56L59.76,59.76L30.96,59.76Z"  style="fill:rgb(193,193,193);stroke-width:2.16;stroke:rgb(0,0,0);" />
<path d="M59.76,88.56L88.56,88.56L88.56,59.76L59.76,59.76Z"  style="fill:rgb(193,193,193);stroke-width:2.16;stroke:rgb(0,0,0);" />
<path d="M88.56,88.56L117.36,88.56L117.36,59.76L88.56,59.76Z"  style="fill:rgb(193,193,193);stroke-width:2.16;stroke:rgb(0,0,0);" />
<path d="M117.36,88.56L146.16,88.56L146.16,59.76L117.36,59.76Z"  style="fill:rgb(193,193,193);stroke-width:2.16;stroke:rgb(0,0,0);" />
<path d="M146.16,88.56L174.96,88.56L174.96,59.76L146.16,59.76Z"  style="fill:rgb(193,193,193);stroke-width:2.16;stroke:rgb(0,0,0);" />
<path d="M174.96,88.56L203.76,88.56L203.76,59.76L174.96,59.76Z"  style="fill:rgb(193,193,193);stroke-width:2.16;stroke:rgb(0,0,0);" />
<path d="M203.76,88.56L232.56,88.56L232.56,59.76L203.76,59.76Z"  style="fill:rgb(193,193,193);stroke-width:2.16;stroke:rgb(0,0,0);" />
<path d="M232.56,88.56L261.36,88.56L261.36,59.76L232.56,59.76Z"  style="fill:rgb(193,193,193);stroke-width:2.16;stroke:rgb(0,0,0);" />
<path d="M261.36,88.56L290.16,88.56L290.16,59.76L261.36,59.76Z"  style="fill:rgb(193,193,193);stroke-width:2.16;stroke:rgb(0,0,0);" />
<path d="M2.16,117.36L30.96,117.36L30.96,88.56L2.16,88.56Z"  style="fill:rgb(193,193,193);stroke-width:2.16;stroke:rgb(0,0,0);" />
<path d="M30.96,117.36L59.76,117.36L59.76,88.56L30.96,88.56Z"  style="fill:rgb(193,193,193);stroke-width:2.16;stroke:rgb(0,0,0);" />
<path d="M59.76,117.36L88.56,117.36L88.56,88.56L59.76,88.56Z"  style="fill:rgb(193,193,193);stroke-width:2.16;stroke:rgb(0,0,0);" />
<path d="M88.56,117.36L117.36,117.36L117.36,88.56L88.56,88.56Z"  style="fill:rgb(193,193,193);stroke-width:2.16;stroke:rgb(0,0,0);" />
<path d="M117.36,117.36L146.16,117.36L146.16,88.56L117.36,88.56Z"  style="fill:rgb(193,193,193);stroke-width:2.16;stroke:rgb(0,0,0);" />
<path d="M146.16,117.36L174.96,117.36L174.96,88.56L146.16,88.56Z"  style="fill:rgb(193,193,193);stroke-width:2.16;stroke:rgb(0,0,0);" />
<path d="M174.96,117.36L203.76,117.36L203.76,88.56L174.96,88.56Z"  style="fill:rgb(193,193,193);stroke-width:2.16;stroke:rgb(0,0,0);" />
<path d="M203.76,117.36L232.56,117.36L232.56,88.56L203.76,88.56Z"  style="fill:rgb(193,193,193);stroke-width:2.16;stroke:rgb(0,0,0);" />
<path d="M232.56,117.36L261.36,117.36L261.36,88.56L232.56,88.56Z"  style="fill:rgb(193,193,193);stroke-width:2.16;stroke:rgb(0,0,0);" />
<path d="M261.36,117.36L290.16,117.36L290.16,88.56L261.36,88.56Z"  style="fill:rgb(193,193,193);stroke-width:2.16;stroke:rgb(0,0,0);" />
<path d="M2.16,146.16L30.96,146.16L30.96,117.36L2.16,117.36Z"  style="fill:rgb(193,193,193);stroke-width:2.16;stroke:rgb(0,0,0);" />
<path d="M30.96,146.16L59.76,146.16L59.76,117.36L30.96,117.36Z"  style="fill:rgb(193,193,193);stroke-width:2.16;stroke:rgb(0,0,0);" />
<path d="M59.76,146.16L88.56,146.16L88.56,117.36L59.76,117.36Z"  style="fill:rgb(193,193,193);stroke-width:2.16;stroke:rgb(0,0,0);" />
<path d="M88.56,146.16L117.36,146.16L117.36,117.36L88.56,117.36Z"  style="fill:rgb(193,193,193);stroke-width:2.16;stroke:rgb(0,0,0);" />
<path d="M117.36,146.16L146.16,146.16L146.16,117.36L117.36,117.36Z"  style="fill:rgb(193,193,193);stroke-width:2.16;stroke:rgb(0,0,0);" />
<path d="M146.16,146.16L174.96,146.16L174.96,117.36L146.16,117.36Z"  style="fill:rgb(193,193,193);stroke-width:2.16;stroke:rgb(0,0,0);" />
<path d="M174.96,146.16L203.76,146.16L203.76,117.36L174.96,117.36Z"  style="fill:rgb(193,193,193);stroke-width:2.16;stroke:rgb(0,0,0);" />
<path d="M203.76,146.16L232.56,146.16L232.56,117.36L203.76,117.36Z"  style="fill:rgb(193,193,193);stroke-width:2.16;stroke:rgb(0,0,0);" />
<path d="M232.56,146.16L261.36,146.16L261.36,117.36L232.56,117.36Z"  style="fill:rgb(193,193,193);stroke-width:2.16;stroke:rgb(0,0,0);" />
<path d="M261.36,146.16L290.16,146.16L290.16,117.36L261.36,117.36Z"  style="fill:rgb(193,193,193);stroke-width:2.16;stroke:rgb(0,0,0);" />
<path d="M2.16,174.96L30.96,174.96L30.96,146.16L2.16,146.16Z"  style="fill:rgb(193,193,193);stroke-width:2.16;stroke:rgb(0,0,0);" />
<path d="M30.96,174.96L59.76,174.96L59.76,146.16L30.96,146.16Z"  style="fill:rgb(193,193,193);stroke-width:2.16;stroke:rgb(0,0,0);" />
<path d="M59.76,174.96L88.56,174.96L88.56,146.16L59.76,146.16Z"  style="fill:rgb(193,193,193);stroke-width:2.16;stroke:rgb(0,0,0);" />
<path d="M88.56,174.96L117.36,174.96L117.36,146.16L88.56,146.16Z"  style="fill:rgb(193,193,193);stroke-width:2.16;stroke:rgb(0,0,0);" />
<path d="M117.36,174.96L146.16,174.96L146.16,146.16L117.36,146.16Z"  style="fill:rgb(193,193,193);stroke-width:2.16;stroke:rgb(0,0,0);" />
<path d="M146.16,174.96L174.96,174.96L174.96,146.16L146.16,146.16Z"  style="fill:rgb(193,193,193);stroke-width:2.16;stroke:rgb(0,0,0);" />
<path d="M174.96,174.96L203.76,174.96L203.76,146.16L174.96,146.16Z"  style="fill:rgb(193,193,193);stroke-width:2.16;stroke:rgb(0,0,0);" />
<path d="M203.76,174.96L232.56,174.96L232.56,146.16L203.76,146.16Z"  style="fill:rgb(193,193,193);stroke-width:2.16;stroke:rgb(0,0,0);" />
<path d="M232.56,174.96L261.36,174.96L261.36,146.16L232.56,146.16Z"  style="fill:rgb(193,193,193);stroke-width:2.16;stroke:rgb(0,0,0);" />
<path d="M261.36,174.96L290.16,174.96L290.16,146.16L261.36,146.16Z"  style="fill:rgb(193,193,193);stroke-width:2.16;stroke:rgb(0,0,0);" />
<path d="M2.16,203.76L30.96,203.76L30.96,174.96L2.16,174.96Z"  style="fill:rgb(193,193,193);stroke-width:2.16;stroke:rgb(0,0,0);" />
<path d="M30.96,203.76L59.76,203.76L59.76,174.96L30.96,174.96Z"  style="fill:rgb(193,193,193);stroke-width:2.16;stroke:rgb(0,0,0);" />
<path d="M59.76,203.76L88.56,203.76L88.56,174.96L59.76,174.96Z"  style="fill:rgb(193,193,193);stroke-width:2.16;stroke:rgb(0,0,0);" />
<path d="M88.56,203.76L117.36,203.76L117.36,174.96L88.56,174.96Z"  style="fill:rgb(193,193,193);stroke-width:2.16;stroke:rgb(0,0,0);" />
<path d="M117.36,203.76L146.16,203.76L146.16,174.96L117.36,174.96Z"  style="fill:rgb(193,193,193);stroke-width:2.16;stroke:rgb(0,0,0);" />
<path d="M146.16,203.76L174.96,203.76L174.96,174.96L146.16,174.96Z"  style="fill:rgb(193,193,193);stroke-width:2.16;stroke:rgb(0,0,0);" />
<path d="M174.96,203.76L203.76,203.76L203.76,174.96L174.96,174.96Z"  style="fill:rgb(193,193,193);stroke-width:2.16;stroke:rgb(0,0,0);" />
<path d="M203.76,203.76L232.56,203.76L232.56,174.96L203.76,174.96Z"  style="fill:rgb(193,193,193);stroke-width:2.16;stroke:rgb(0,0,0);" />
<path d="M232.56,203.76L261.36,203.76L261.36,174.96L232.56,174.96Z"  style="fill:rgb(193,193,193);stroke-width:2.16;stroke:rgb(0,0,0);" />
<path d="M261.36,203.76L290.16,203.76L290.16,174.96L261.36,174.96Z"  style="fill:rgb(193,193,193);stroke-width:2.16;stroke:rgb(0,0,0);" />
<path d="M2.16,232.56L30.96,232.56L30.96,203.76L2.16,203.76Z"  style="fill:rgb(193,193,193);stroke-width:2.16;stroke:rgb(0,0,0);" />
<path d="M30.96,232.56L59.76,232.56L59.76,203.76L30.96,203.76Z"  style="fill:rgb(193,193,193);stroke-width:2.16;stroke:rgb(0,0,0);" />
<path d="M59.76,232.56L88.56,232.56L88.56,203.76L59.76,203.76Z"  style="fill:rgb(193,193,193);stroke-width:2.16;stroke:rgb(0,0,0);" />
<path d="M88.56,232.56L117.36,232.56L117.36,203.76L88.56,203.76Z"  style="fill:rgb(193,193,193);stroke-width:2.16;stroke:rgb(0,0,0);" />
<path d="M117.36,232.56L146.16,232.56L146.16,203.76L117.36,203.76Z"  style="fill:rgb(193,193,193);stroke-width:2.16;stroke:rgb(0,0,0);" />
<path d="M146.16,232.56L174.96,232.56L174.96,203.76L146.16,203.76Z"  style="fill:rgb(193,193,193);stroke-width:2.16;stroke:rgb(0,0,0);" />
<path d="M174.96,232.56L203.76,232.56L203.76,203.76L174.96,203.76Z"  style="fill:rgb(193,193,193);stroke-width:2.16;stroke:rgb(0,0,0);" />
<path d="M203.76,232.56L232.56,232.56L232.56,203.76L203.76,203.76Z"  style="fill:rgb(193,193,193);stroke-width:2.16;stroke:rgb(0,0,0);" />
<path d="M232.56,232.56L261.36,232.56L261.36,203.76L232.56,203.76Z"  style="fill:rgb(193,193,193);stroke-width:2.16;stroke:rgb(0,0,0);" />
<path d="M261.36,232.56L290.16,232.56L290.16,203.76L261.36,203.76Z"  style="fill:rgb(193,193,193);stroke-width:2.16;stroke:rgb(0,0,0);" />
<path d="M2.16,261.36L30.96,261.36L30.96,232.56L2.16,232.56Z"  style="fill:rgb(193,193,193);stroke-width:2.16;stroke:rgb(0,0,0);" />
<path d="M30.96,261.36L59.76,261.36L59.76,232.56L30.96,232.56Z"  style="fill:rgb(193,193,193);stroke-width:2.16;stroke:rgb(0,0,0);" />
<path d="M59.76,261.36L88.56,261.36L88.56,232.56L59.76,232.56Z"  style="fill:rgb(193,193,193);stroke-width:2.16;stroke:rgb(0,0,0);" />
<path d="M88.56,261.36L117.36,261.36L117.36,232.56L88.56,232.56Z"  style="fill:rgb(193,193,193);stroke-width:2.16;stroke:rgb(0,0,0);" />
<path d="M117.36,261.36L146.16,261.36L146.16,232.56L117.36,232.56Z"  style="fill:rgb(193,193,193);stroke-width:2.16;stroke:rgb(0,0,0);" />
<path d="M146.16,261.36L174.96,261.36L174.96,232.56L146.16,232.56Z"  style="fill:rgb(193,193,193);stroke-width:2.16;stroke:rgb(0,0,0);" />
<path d="M174.96,261.36L203.76,261.36L203.76,232.56L174.96,232.56Z"  style="fill:rgb(193,193,193);stroke-width:2.16;stroke:rgb(0,0,0);" />
<path d="M203.76,261.36L232.56,261.36L232.56,232.56L203.76,232.56Z"  style="fill:rgb(193,193,193);stroke-width:2.16;stroke:rgb(0,0,0);" />
<path d="M232.56,261.36L261.36,261.36L261.36,232.56L232.56,232.56Z"  style="fill:rgb(193,193,193);stroke-width:2.16;stroke:rgb(0,0,0);" />
<path d="M261.36,261.36L290.16,261.36L290.16,232.56L261.36,232.56Z"  style="fill:rgb(193,193,193);stroke-width:2.16;stroke:rgb(0,0,0);" />
<path d="M2.16,290.16L30.96,290.16L30.96,261.36L2.16,261.36Z"  style="fill:rgb(193,193,193);stroke-width:2.16;stroke:rgb(0,0,0);" />
<path d="M30.96,290.16L59.76,290.16L59.76,261.36L30.96,261.36Z"  style="fill:rgb(193,193,193);stroke-width:2.16;stroke:rgb(0,0,0);" />
<path d="M59.76,290.16L88.56,290.16L88.56,261.36L59.76,261.36Z"  style="fill:rgb(193,193,193);stroke-width:2.16;stroke:rgb(0,0,0);" />
<path d="M88.56,290.16L117.36,290.16L117.36,261.36L88.56,261.36Z"  style="fill:rgb(193,193,193);stroke-width:2.16;stroke:rgb(0,0,0);" />
<path d="M117.36,290.16L146.16,290.16L146.16,261.36L117.36,261.36Z"  style="fill:rgb(193,193,193);stroke-width:2.16;stroke:rgb(0,0,0);" />
<path d="M146.16,290.16L174.96,290.16L174.96,261.36L146.16,261.36Z"  style="fill:rgb(193,193,193);stroke-width:2.16;stroke:rgb(0,0,0);" />
<path d="M174.96,290.16L203.76,290.16L203.76,261.36L174.96,261.36Z"  style="fill:rgb(193,193,193);stroke-width:2.16;stroke:rgb(0,0,0);" />
<path d="M203.76,290.16L232.56,290.16L232.56,261.36L203.76,261.36Z"  style="fill:rgb(193,193,193);stroke-width:2.16;stroke:rgb(0,0,0);" />
<path d="M232.56,290.16L261.36,290.16L261.36,261.36L232.56,261.36Z"  style="fill:rgb(193,193,193);stroke-width:2.16;stroke:rgb(0,0,0);" />
<path d="M261.36,290.16L290.16,290.16L290.16,261.36L261.36,261.36Z"  style="fill:rgb(193,193,193);stroke-width:2.16;stroke:rgb(0,0,0);" />
<path d="M2.16,318.96L30.96,318.96L30.96,290.16L2.16,290.16Z"  style="fill:rgb(193,193,193);stroke-width:2.16;stroke:rgb(0,0,0);" />
<path d="M30.96,318.96L59.76,318.96L59.76,290.16L30.96,290.16Z"  style="fill:rgb(193,193,193);stroke-width:2.16;stroke:rgb(0,0,0);" />
<path d="M59.76,318.96L88.56,318.96L88.56,290.16L59.76,290.16Z"  style="fill:rgb(193,193,193);stroke-width:2.16;stroke:rgb(0,0,0);" />
<path d="M88.56,318.96L117.36,318.96L117.36,290.16L88.56,290.16Z"  style="fill:rgb(193,193,193);stroke-width:2.16;stroke:rgb(0,0,0);" />
<path d="M117.36,318.96L146.16,318.96L146.16,290.16L117.36,290.16Z"  style="fill:rgb(193,193,193);stroke-width:2.16;stroke:rgb(0,0,0);" />
<path d="M146.16,318.96L174.96,318.96L174.96,290.16L146.16,290.16Z"  style="fill:rgb(193,193,193);stroke-width:2.16;stroke:rgb(0,0,0);" />
<path d="M174.96,318.96L203.76,318.96L203.76,290.16L174.96,290.16Z"  style="fill:rgb(193,193,193);stroke-width:2.16;stroke:rgb(0,0,0);" />
<path d="M203.76,318.96L232.56,318.96L232.56,290.16L203.76,290.16Z"  style="fill:rgb(193,193,193);stroke-width:2.16;stroke:rgb(0,0,0);" />
<path d="M232.56,318.96L261.36,318.96L261.36,290.16L232.56,290.16Z"  style="fill:rgb(193,193,193);stroke-width:2.16;stroke:rgb(0,0,0);" />
<path d="M261.36,318.96L290.16,318.96L290.16,290.16L261.36,290.16Z"  style="fill:rgb(193,193,193);stroke-width:2.16;stroke:rgb(0,0,0);" />
<path d="M2.16,347.76L30.96,347.76L30.96,318.96L2.16,318.96Z"  style="fill:rgb(193,193,193);stroke-width:2.16;stroke:rgb(0,0,0);" />
<path d="M30.96,347.76L59.76,347.76L59.76,318.96L30.96,318.96Z"  style="fill:rgb(193,193,193);stroke-width:2.16;stroke:rgb(0,0,0);" />
<path d="M59.76,347.76L88.56,347.76L88.56,318.96L59.76,318.96Z"  style="fill:rgb(193,193,193);stroke-width:2.16;stroke:rgb(0,0,0);" />
<path d="M88.56,347.76L117.36,347.76L117.36,318.96L88.56,318.96Z"  style="fill:rgb(193,193,193);stroke-width:2.16;stroke:rgb(0,0,0);" />
<path d="M117.36,347.76L146.16,347.76L146.16,318.96L117.36,318.96Z"  style="fill:rgb(193,193,193);stroke-width:2.16;stroke:rgb(0,0,0);" />
<path d="M146.16,347.76L174.96,347.76L174.96,318.96L146.16,318.96Z"  style="fill:rgb(193,193,193);stroke-width:2.16;stroke:rgb(0,0,0);" />
<path d="M174.96,347.76L203.76,347.76L203.76,318.96L174.96,318.96Z"  style="fill:rgb(193,193,193);stroke-width:2.16;stroke:rgb(0,0,0);" />
<path d="M203.76,347.76L232.56,347.76L232.56,318.96L203.76,318.96Z"  style="fill:rgb(193,193,193);stroke-width:2.16;stroke:rgb(0,0,0);" />
<path d="M232.56,347.76L261.36,347.76L261.36,318.96L232.56,318.96Z"  style="fill:rgb(193,193,193);stroke-width:2.16;stroke:rgb(0,0,0);" />
<path d="M261.36,347.76L290.16,347.76L290.16,318.96L261.36,318.96Z"  style="fill:rgb(193,193,193);stroke-width:2.16;stroke:rgb(0,0,0);" />
<path d="M2.16,376.56L30.96,376.56L30.96,347.76L2.16,347.76Z"  style="fill:rgb(193,193,193);stroke-width:2.16;stroke:rgb(0,0,0);" />
<path d="M30.96,376.56L59.76,376.56L59.76,347.76L30.96,347.76Z"  style="fill:rgb(193,193,193);stroke-width:2.16;stroke:rgb(0,0,0);" />
<path d="M59.76,376.56L88.56,376.56L88.56,347.76L59.76,347.76Z"  style="fill:rgb(193,193,193);stroke-width:2.16;stroke:rgb(0,0,0);" />
<path d="M88.56,376.56L117.36,376.56L117.36,347.76L88.56,347.76Z"  style="fill:rgb(193,193,193);stroke-width:2.16;stroke:rgb(0,0,0);" />
<path d="M117.36,376.56L146.16,376.56L146.16,347.76L117.36,347.76Z"  style="fill:rgb(193,193,193);stroke-width:2.16;stroke:rgb(0,0,0);" />
<path d="M146.16,376.56L174.96,376.56L174.96,347.76L146.16,347.76Z"  style="fill:rgb(193,193,193);stroke-width:2.16;stroke:rgb(0,0,0);" />
<path d="M174.96,376.56L203.76,376.56L203.76,347.76L174.96,347.76Z"  style="fill:rgb(193,193,193);stroke-width:2.16;stroke:rgb(0,0,0);" />
<path d="M203.76,376.56L232.56,376.56L232.56,347.76L203.76,347.76Z"  style="fill:rgb(193,193,193);stroke-width:2.16;stroke:rgb(0,0,0);" />
<path d="M232.56,376.56L261.36,376.56L261.36,347.76L232.56,347.76Z"  style="fill:rgb(193,193,193);stroke-width:2.16;stroke:rgb(0,0,0);" />
<path d="M261.36,376.56L290.16,376.56L290.16,347.76L261.36,347.76Z"  style="fill:rgb(193,193,193);stroke-width:2.16;stroke:rgb(0,0,0);" />
<path d="M2.16,405.36L30.96,405.36L30.96,376.56L2.16,376.56Z"  style="fill:rgb(193,193,193);stroke-width:2.16;stroke:rgb(0,0,0);" />
<path d="M30.96,405.36L59.76,405.36L59.76,376.56L30.96,376.56Z"  style="fill:rgb(193,193,193);stroke-width:2.16;stroke:rgb(0,0,0);" />
<path d="M59.76,405.36L88.56,405.36L88.56,376.56L59.76,376.56Z"  style="fill:rgb(193,193,193);stroke-width:2.16;stroke:rgb(0,0,0);" />
<path d="M88.56,405.36L117.36,405.36L117.36,376.56L88.56,376.56Z"  style="fill:rgb(193,193,193);stroke-width:2.16;stroke:rgb(0,0,0);" />
<path d="M117.36,405.36L146.16,405.36L146.16,376.56L117.36,376.56Z"  style="fill:rgb(193,193,193);stroke-width:2.16;stroke:rgb(0,0,0);" />
<path d="M146.16,405.36L174.96,405.36L174.96,376.56L146.16,376.56Z"  style="fill:rgb(193,193,193);stroke-width:2.16;stroke:rgb(0,0,0);" />
<path d="M174.96,405.36L203.76,405.36L203.76,376.56L174.96,376.56Z"  style="fill:rgb(193,193,193);stroke-width:2.16;stroke:rgb(0,0,0);" />
<path d="M203.76,405.36L232.56,405.36L232.56,376.56L203.76,376.56Z"  style="fill:rgb(193,193,193);stroke-width:2.16;stroke:rgb(0,0,0);" />
<path d="M232.56,405.36L261.36,405.36L261.36,376.56L232.56,376.56Z"  style="fill:rgb(193,193,193);stroke-width:2.16;stroke:rgb(0,0,0);" />
<path d="M261.36,405.36L290.16,405.36L290.16,376.56L261.36,376.56Z"  style="fill:rgb(193,193,193);stroke-width:2.16;stroke:rgb(0,0,0);" />
<path d="M2.16,434.16L30.96,434.16L30.96,405.36L2.16,405.36Z"  style="fill:rgb(193,193,193);stroke-width:2.16;stroke:rgb(0,0,0);" />
<path d="M30.96,434.16L59.76,434.16L59.76,405.36L30.96,405.36Z"  style="fill:rgb(193,193,193);stroke-width:2.16;stroke:rgb(0,0,0);" />
<path d="M59.76,434.16L88.56,434.16L88.56,405.36L59.76,405.36Z"  style="fill:rgb(193,193,193);stroke-width:2.16;stroke:rgb(0,0,0);" />
<path d="M88.56,434.16L117.36,434.16L117.36,405.36L88.56,405.36Z"  style="fill:rgb(193,193,193);stroke-width:2.16;stroke:rgb(0,0,0);" />
<path d="M117.36,434.16L146.16,434.16L146.16,405.36L117.36,405.36Z"  style="fill:rgb(193,193,193);stroke-width:2.16;stroke:rgb(0,0,0);" />
<path d="M146.16,434.16L174.96,434.16L174.96,405.36L146.16,405.36Z"  style="fill:rgb(193,193,193);stroke-width:2.16;stroke:rgb(0,0,0);" />
<path d="M174.96,434.16L203.76,434.16L203.76,405.36L174.96,405.36Z"  style="fill:rgb(193,193,193);stroke-width:2.16;stroke:rgb(0,0,0);" />
<path d="M203.76,434.16L232.56,434.16L232.56,405.36L203.76,405.36Z"  style="fill:rgb(193,193,193);stroke-width:2.16;stroke:rgb(0,0,0);" />
<path d="M232.56,434.16L261.36,434.16L261.36,405.36L232.56,405.36Z"  style="fill:rgb(193,193,193);stroke-width:2.16;stroke:rgb(0,0,0);" />
<path d="M261.36,434.16L290.16,434.16L290.16,405.36L261.36,405.36Z"  style="fill:rgb(193,193,193);stroke-width:2.16;stroke:rgb(0,0,0);" />
<path d="M2.16,462.96L30.96,462.96L30.96,434.16L2.16,434.16Z"  style="fill:rgb(193,193,193);stroke-width:2.16;stroke:rgb(0,0,0);" />
<path d="M30.96,462.96L59.76,462.96L59.76,434.16L30.96,434.16Z"  style="fill:rgb(193,193,193);stroke-width:2.16;stroke:rgb(0,0,0);" />
<path d="M59.76,462.96L88.56,462.96L88.56,434.16L59.76,434.16Z"  style="fill:rgb(193,193,193);stroke-width:2.16;stroke:rgb(0,0,0);" />
<path d="M88.56,462.96L117.36,462.96L117.36,434.16L88.56,434.16Z"  style="fill:rgb(193,193,193);stroke-width:2.16;stroke:rgb(0,0,0);" />
<path d="M117.36,462.96L146.16,462.96L146.16,434.16L117.36,434.16Z"  style="fill:rgb(193,193,193);stroke-width:2.16;stroke:rgb(0,0,0);" />
<path d="M146.16,462.96L174.96,462.96L174.96,434.16L146.16,434.16Z"  style="fill:rgb(193,193,193);stroke-width:2.16;stroke:rgb(0,0,0);" />
<path d="M174.96,462.96L203.76,462.96L203.76,434.16L174.96,434.16Z"  style="fill:rgb(193,193,193);stroke-width:2.16;stroke:rgb(0,0,0);" />
<path d="M203.76,462.96L232.56,462.96L232.56,434.16L203.76,434.16Z"  style="fill:rgb(193,193,193);stroke-width:2.16;stroke:rgb(0,0,0);" />
<path d="M232.56,462.96L261.36,462.96L261.36,434.16L232.56,434.16Z"  style="fill:rgb(193,193,193);stroke-width:2.16;stroke:rgb(0,0,0);" />
<path d="M261.36,462.96L290.16,462.96L290.16,434.16L261.36,434.16Z"  style="fill:rgb(193,193,193);stroke-width:2.16;stroke:rgb(0,0,0);" />
<path d="M2.16,491.76L30.96,491.76L30.96,462.96L2.16,462.96Z"  style="fill:rgb(193,193,193);stroke-width:2.16;stroke:rgb(0,0,0);" />
<path d="M30.96,491.76L59.76,491.76L59.76,462.96L30.96,462.96Z"  style="fill:rgb(241,54,54);stroke-width:2.16;stroke:rgb(0,0,0);" />
<path d="M59.76,491.76L88.56,491.76L88.56,462.96L59.76,462.96Z"  style="fill:rgb(193,193,193);stroke-width:2.16;stroke:rgb(0,0,0);" />
<path d="M88.56,491.76L117.36,491.76L117.36,462.96L88.56,462.96Z"  style="fill:rgb(193,193,193);stroke-width:2.16;stroke:rgb(0,0,0);" />
<path d="M117.36,491.76L146.16,491.76L146.16,462.96L117.36,462.96Z"  style="fill:rgb(193,193,193);stroke-width:2.16;stroke:rgb(0,0,0);" />
<path d="M146.16,491.76L174.96,491.76L174.96,462.96L146.16,462.96Z"  style="fill:rgb(103,237,245);stroke-width:2.16;stroke:rgb(0,0,0);" />
<path d="M174.96,491.76L203.76,491.76L203.76,462.96L174.96,462.96Z"  style="fill:rgb(193,193,193);stroke-width:2.16;stroke:rgb(0,0,0);" />
<path d="M203.76,491.76L232.56,491.76L232.56,462.96L203.76,462.96Z"  style="fill:rgb(135,206,235);stroke-width:2.16;stroke:rgb(0,0,0);" />
<path d="M232.56,491.76L261.36,491.76L261.36,462.96L232.56,462.96Z"  style="fill:rgb(135,206,235);stroke-width:2.16;stroke:rgb(0,0,0);" />
<path d="M261.36,491.76L290.16,491.76L290.16,462.96L261.36,462.96Z"  style="fill:rgb(135,206,235);stroke-width:2.16;stroke:rgb(0,0,0);" />
<path d="M2.16,520.56L30.96,520.56L30.96,491.76L2.16,491.76Z"  style="fill:rgb(241,54,54);stroke-width:2.16;stroke:rgb(0,0,0);" />
<path d="M30.96,520.56L59.76,520.56L59.76,491.76L30.96,491.76Z"  style="fill:rgb(241,54,54);stroke-width:2.16;stroke:rgb(0,0,0);" />
<path d="M59.76,520.56L88.56,520.56L88.56,491.76L59.76,491.76Z"  style="fill:rgb(57,229,114);stroke-width:2.16;stroke:rgb(0,0,0);" />
<path d="M88.56,520.56L117.36,520.56L117.36,491.76L88.56,491.76Z"  style="fill:rgb(193,193,193);stroke-width:2.16;stroke:rgb(0,0,0);" />
<path d="M117.36,520.56L146.16,520.56L146.16,491.76L117.36,491.76Z"  style="fill:rgb(193,193,193);stroke-width:2.16;stroke:rgb(0,0,0);" />
<path d="M146.16,520.56L174.96,520.56L174.96,491.76L146.16,491.76Z"  style="fill:rgb(103,237,245);stroke-width:2.16;stroke:rgb(0,0,0);" />
<path d="M174.96,520.56L203.76,520.56L203.76,491.76L174.96,491.76Z"  style="fill:rgb(193,193,193);stroke-width:2.16;stroke:rgb(0,0,0);" />
<path d="M203.76,520.56L232.56,520.56L232.56,491.76L203.76,491.76Z"  style="fill:rgb(255,242,35);stroke-width:2.16;stroke:rgb(0,0,0);" />
<path d="M232.56,520.56L261.36,520.56L261.36,491.76L232.56,491.76Z"  style="fill:rgb(255,242,35);stroke-width:2.16;stroke:rgb(0,0,0);" />
<path d="M261.36,520.56L290.16,520.56L290.16,491.76L261.36,491.76Z"  style="fill:rgb(135,206,235);stroke-width:2.16;stroke:rgb(0,0,0);" />
<path d="M2.16,549.36L30.96,549.36L30.96,520.56L2.16,520.56Z"  style="fill:rgb(241,54,54);stroke-width:2.16;stroke:rgb(0,0,0);" />
<path d="M30.96,549.36L59.76,549.36L59.76,520.56L30.96,520.56Z"  style="fill:rgb(201,54,241);stroke-width:2.16;stroke:rgb(0,0,0);" />
<path d="M59.76,549.36L88.56,549.36L88.56,520.56L59.76,520.56Z"  style="fill:rgb(57,229,114);stroke-width:2.16;stroke:rgb(0,0,0);" />
<path d="M88.56,549.36L117.36,549.36L117.36,520.56L88.56,520.56Z"  style="fill:rgb(57,229,114);stroke-width:2.16;stroke:rgb(0,0,0);" />
<path d="M117.36,549.36L146.16,549.36L146.16,520.56L117.36,520.56Z"  style="fill:rgb(193,193,193);stroke-width:2.16;stroke:rgb(0,0,0);" />
<path d="M146.16,549.36L174.96,549.36L174.96,520.56L146.16,520.56Z"  style="fill:rgb(103,237,245);stroke-width:2.16;stroke:rgb(0,0,0);" />
<path d="M174.96,549.36L203.76,549.36L203.76,520.56L174.96,520.56Z"  style="fill:rgb(193,193,193);stroke-width:2.16;stroke:rgb(0,0,0);" />
<path d="M203.76,549.36L232.56,549.36L232.56,520.56L203.76,520.56Z"  style="fill:rgb(255,242,35);stroke-width:2.16;stroke:rgb(0,0,0);" />
<path d="M232.56,549.36L261.36,549.36L261.36,520.56L232.56,520.56Z"  style="fill:rgb(255,242,35);stroke-width:2.16;stroke:rgb(0,0,0);" />
<path d="M261.36,549.36L290.16,549.36L290.16,520.56L261.36,520.56Z"  style="fill:rgb(251,187,17);stroke-width:2.16;stroke:rgb(0,0,0);" />
<path d="M2.16,578.16L30.96,578.16L30.96,549.36L2.16,549.36Z"  style="fill:rgb(201,54,241);stroke-width:2.16;stroke:rgb(0,0,0);" />
<path d="M30.96,578.16L59.76,578.16L59.76,549.36L30.96,549.36Z"  style="fill:rgb(201,54,241);stroke-width:2.16;stroke:rgb(0,0,0);" />
<path d="M59.76,578.16L88.56,578.16L88.56,549.36L59.76,549.36Z"  style="fill:rgb(201,54,241);stroke-width:2.16;stroke:rgb(0,0,0);" />
<path d="M88.56,578.16L117.36,578.16L117.36,549.36L88.56,549.36Z"  style="fill:rgb(57,229,114);stroke-width:2.16;stroke:rgb(0,0,0);" />
<path d="M117.36,578.16L146.16,578.16L146.16,549.36L117.36,549.36Z"  style="fill:rgb(193,193,193);stroke-width:2.16;stroke:rgb(0,0,0);" />
<path d="M146.16,578.16L174.96,578.16L174.96,549.36L146.16,549.36Z"  style="fill:rgb(103,237,245);stroke-width:2.16;stroke:rgb(0,0,0);" />
<path d="M174.96,578.16L203.76,578.16L203.76,549.36L174.96,549.36Z"  style="fill:rgb(193,193,193);stroke-width:2.16;stroke:rgb(0,0,0);" />
<path d="M203.76,578.16L232.56,578.16L232.56,549.36L203.76,549.36Z"  style="fill:rgb(251,187,17);stroke-width:2.16;stroke:rgb(0,0,0);" />
<path d="M232.56,578.16L261.36,578.16L261.36,549.36L232.56,549.36Z"  style="fill:rgb(251,187,17);stroke-width:2.16;stroke:rgb(0,0,0);" />
<path d="M261.36,578.16L290.16,578.16L290.16,549.36L261.36,549.36Z"  style="fill:rgb(251,187,17);stroke-width:2.16;stroke:rgb(0,0,0);" />
</svg>
