<svg xmlns="http://www.w3.org/2000/svg" viewBox="0 0 571.249 1138.18" style="width: 572px; height: 1139px;">
<path d="M2.16,58.8529L58.8529,58.8529L58.8529,2.16L2.16,2.16Z" style="fill:rgb(193,193,193);stroke-width:2.16;stroke:rgb(0,0,0);"></path>
<path d="M58.8529,58.8529L115.546,58.8529L115.546,2.16L58.8529,2.16Z" style="fill:rgb(193,193,193);stroke-width:2.16;stroke:rgb(0,0,0);"></path>
<path d="M115.546,58.8529L172.239,58.8529L172.239,2.16L115.546,2.16Z" style="fill:rgb(193,193,193);stroke-width:2.16;stroke:rgb(0,0,0);"></path>
<path d="M172.239,58.8529L228.932,58.8529L228.932,2.16L172.239,2.16Z" style="fill:rgb(193,193,193);stroke-width:2.16;stroke:rgb(0,0,0);"></path>
<path d="M228.932,58.8529L285.625,58.8529L285.625,2.16L228.932,2.16Z" style="fill:rgb(193,193,193);stroke-width:2.16;stroke:rgb(0,0,0);"></path>
<path d="M285.625,58.8529L342.317,58.8529L342.317,2.16L285.625,2.16Z" style="fill:rgb(193,193,193);stroke-width:2.16;stroke:rgb(0,0,0);"></path>
<path d="M342.317,58.8529L399.01,58.8529L399.01,2.16L342.317,2.16Z" style="fill:rgb(193,193,193);stroke-width:2.16;stroke:rgb(0,0,0);"></path>
<path d="M399.01,58.8529L455.703,58.8529L455.703,2.16L399.01,2.16Z" style="fill:rgb(193,193,193);stroke-width:2.16;stroke:rgb(0,0,0);"></path>
<path d="M455.703,58.8529L512.396,58.8529L512.396,2.16L455.703,2.16Z" style="fill:rgb(193,193,193);stroke-width:2.16;stroke:rgb(0,0,0);"></path>
<path d="M512.396,58.8529L569.089,58.8529L569.089,2.16L512.396,2.16Z" style="fill:rgb(193,193,193);stroke-width:2.16;stroke:rgb(0,0,0);"></path>
<path d="M2.16,115.546L58.8529,115.546L58.8529,58.8529L2.16,58.8529Z" style="fill:rgb(193,193,193);stroke-width:2.16;stroke:rgb(0,0,0);"></path>
<path d="M58.8529,115.546L115.546,115.546L115.546,58.8529L58.8529,58.8529Z" style="fill:rgb(193,193,193);stroke-width:2.16;stroke:rgb(0,0,0);"></path>
<path d="M115.546,115.546L172.239,115.546L172.239,58.8529L115.546,58.8529Z" style="fill:rgb(193,193,193);stroke-width:2.16;stroke:rgb(0,0,0);"></path>
<path d="M172.239,115.546L228.932,115.546L228.932,58.8529L172.239,58.8529Z" style="fill:rgb(193,193,193);stroke-width:2.16;stroke:rgb(0,0,0);"></path>
<path d="M228.932,115.546L285.625,115.546L285.625,58.8529L228.932,58.8529Z" style="fill:rgb(193,193,193);stroke-width:2.16;stroke:rgb(0,0,0);"></path>
<path d="M285.625,115.546L342.317,115.546L342.317,58.8529L285.625,58.8529Z" style="fill:rgb(193,193,193);stroke-width:2.16;stroke:rgb(0,0,0);"></path>
<path d="M342.317,115.546L399.01,115.546L399.01,58.8529L342.317,58.8529Z" style="fill:rgb(193,193,193);stroke-width:2.16;stroke:rgb(0,0,0);"></path>
<path d="M399.01,115.546L455.703,115.546L455.703,58.8529L399.01,58.8529Z" style="fill:rgb(193,193,193);stroke-width:2.16;stroke:rgb(0,0,0);"></path>
<path d="M455.703,115.546L512.396,115.546L512.396,58.8529L455.703,58.8529Z" style="fill:rgb(193,193,193);stroke-width:2.16;stroke:rgb(0,0,0);"></path>
<path d="M512.396,115.546L569.089,115.546L569.089,58.8529L512.396,58.8529Z" style="fill:rgb(193,193,193);stroke-width:2.16;stroke:rgb(0,0,0);"></path>
<path d="M2.16,172.239L58.8529,172.239L58.8529,115.546L2.16,115.546Z" style="fill:rgb(193,193,193);stroke-width:2.16;stroke:rgb(0,0,0);"></path>
<path d="M58.8529,172.239L115.546,172.239L115.546,115.546L58.8529,115.546Z" style="fill:rgb(193,193,193);stroke-width:2.16;stroke:rgb(0,0,0);"></path>
<path d="M115.546,172.239L172.239,172.239L172.239,115.546L115.546,115.546Z" style="fill:rgb(193,193,193);stroke-width:2.16;stroke:rgb(0,0,0);"></path>
<path d="M172.239,172.239L228.932,172.239L228.932,115.546L172.239,115.546Z" style="fill:rgb(193,193,193);stroke-width:2.16;stroke:rgb(0,0,0);"></path>
<path d="M228.932,172.239L285.625,172.239L285.625,115.546L228.932,115.546Z" style="fill:rgb(193,193,193);stroke-width:2.16;stroke:rgb(0,0,0);"></path>
<path d="M285.625,172.239L342.317,172.239L342.317,115.546L285.625,115.546Z" style="fill:rgb(193,193,193);stroke-width:2.16;stroke:rgb(0,0,0);"></path>
<path d="M342.317,172.239L399.01,172.239L399.01,115.546L342.317,115.546Z" style="fill:rgb(193,193,193);stroke-width:2.16;stroke:rgb(0,0,0);"></path>
<path d="M399.01,172.239L455.703,172.239L455.703,115.546L399.01,115.546Z" style="fill:rgb(193,193,193);stroke-width:2.16;stroke:rgb(0,0,0);"></path>
<path d="M455.703,172.239L512.396,172.239L512.396,115.546L455.703,115.546Z" style="fill:rgb(193,193,193);stroke-width:2.16;stroke:rgb(0,0,0);"></path>
<path d="M512.396,172.239L569.089,172.239L569.089,115.546L512.396,115.546Z" style="fill:rgb(193,193,193);stroke-width:2.16;stroke:rgb(0,0,0);"></path>
<path d="M2.16,228.932L58.8529,228.932L58.8529,172.239L2.16,172.239Z" style="fill:rgb(193,193,193);stroke-width:2.16;stroke:rgb(0,0,0);"></path>
<path d="M58.8529,228.932L115.546,228.932L115.546,172.239L58.8529,172.239Z" style="fill:rgb(193,193,193);stroke-width:2.16;stroke:rgb(0,0,0);"></path>
<path d="M115.546,228.932L172.239,228.932L172.239,172.239L115.546,172.239Z" style="fill:rgb(193,193,193);stroke-width:2.16;stroke:rgb(0,0,0);"></path>
<path d="M172.239,228.932L228.932,228.932L228.932,172.239L172.239,172.239Z" style="fill:rgb(193,193,193);stroke-width:2.16;stroke:rgb(0,0,0);"></path>
<path d="M228.932,228.932L285.625,228.932L285.625,172.239L228.932,172.239Z" style="fill:rgb(193,193,193);stroke-width:2.16;stroke:rgb(0,0,0);"></path>
<path d="M285.625,228.932L342.317,228.932L342.317,172.239L285.625,172.239Z" style="fill:rgb(193,193,193);stroke-width:2.16;stroke:rgb(0,0,0);"></path>
<path d="M342.317,228.932L399.01,228.932L399.01,172.239L342.317,172.239Z" style="fill:rgb(193,193,193);stroke-width:2.16;stroke:rgb(0,0,0);"></path>
<path d="M399.01,228.932L455.703,228.932L455.703,172.239L399.01,172.239Z" style="fill:rgb(193,193,193);stroke-width:2.16;stroke:rgb(0,0,0);"></path>
<path d="M455.703,228.932L512.396,228.932L512.396,172.239L455.703,172.239Z" style="fill:rgb(193,193,193);stroke-width:2.16;stroke:rgb(0,0,0);"></path>
<path d="M512.396,228.932L569.089,228.932L569.089,172.239L512.396,172.239Z" style="fill:rgb(193,193,193);stroke-width:2.16;stroke:rgb(0,0,0);"></path>
<path d="M2.16,285.625L58.8529,285.625L58.8529,228.932L2.16,228.932Z" style="fill:rgb(193,193,193);stroke-width:2.16;stroke:rgb(0,0,0);"></path>
<path d="M58.8529,285.625L115.546,285.625L115.546,228.932L58.8529,228.932Z" style="fill:rgb(193,193,193);stroke-width:2.16;stroke:rgb(0,0,0);"></path>
<path d="M115.546,285.625L172.239,285.625L172.239,228.932L115.546,228.932Z" style="fill:rgb(193,193,193);stroke-width:2.16;stroke:rgb(0,0,0);"></path>
<path d="M172.239,285.625L228.932,285.625L228.932,228.932L172.239,228.932Z" style="fill:rgb(193,193,193);stroke-width:2.16;stroke:rgb(0,0,0);"></path>
<path d="M228.932,285.625L285.625,285.625L285.625,228.932L228.932,228.932Z" style="fill:rgb(193,193,193);stroke-width:2.16;stroke:rgb(0,0,0);"></path>
<path d="M285.625,285.625L342.317,285.625L342.317,228.932L285.625,228.932Z" style="fill:rgb(193,193,193);stroke-width:2.16;stroke:rgb(0,0,0);"></path>
<path d="M342.317,285.625L399.01,285.625L399.01,228.932L342.317,228.932Z" style="fill:rgb(193,193,193);stroke-width:2.16;stroke:rgb(0,0,0);"></path>
<path d="M399.01,285.625L455.703,285.625L455.703,228.932L399.01,228.932Z" style="fill:rgb(193,193,193);stroke-width:2.16;stroke:rgb(0,0,0);"></path>
<path d="M455.703,285.625L512.396,285.625L512.396,228.932L455.703,228.932Z" style="fill:rgb(193,193,193);stroke-width:2.16;stroke:rgb(0,0,0);"></path>
<path d="M512.396,285.625L569.089,285.625L569.089,228.932L512.396,228.932Z" style="fill:rgb(193,193,193);stroke-width:2.16;stroke:rgb(0,0,0);"></path>
<path d="M2.16,342.317L58.8529,342.317L58.8529,285.625L2.16,285.625Z" style="fill:rgb(193,193,193);stroke-width:2.16;stroke:rgb(0,0,0);"></path>
<path d="M58.8529,342.317L115.546,342.317L115.546,285.625L58.8529,285.625Z" style="fill:rgb(193,193,193);stroke-width:2.16;stroke:rgb(0,0,0);"></path>
<path d="M115.546,342.317L172.239,342.317L172.239,285.625L115.546,285.625Z" style="fill:rgb(193,193,193);stroke-width:2.16;stroke:rgb(0,0,0);"></path>
<path d="M172.239,342.317L228.932,342.317L228.932,285.625L172.239,285.625Z" style="fill:rgb(193,193,193);stroke-width:2.16;stroke:rgb(0,0,0);"></path>
<path d="M228.932,342.317L285.625,342.317L285.625,285.625L228.932,285.625Z" style="fill:rgb(193,193,193);stroke-width:2.16;stroke:rgb(0,0,0);"></path>
<path d="M285.625,342.317L342.317,342.317L342.317,285.625L285.625,285.625Z" style="fill:rgb(193,193,193);stroke-width:2.16;stroke:rgb(0,0,0);"></path>
<path d="M342.317,342.317L399.01,342.317L399.01,285.625L342.317,285.625Z" style="fill:rgb(193,193,193);stroke-width:2.16;stroke:rgb(0,0,0);"></path>
<path d="M399.01,342.317L455.703,342.317L455.703,285.625L399.01,285.625Z" style="fill:rgb(193,193,193);stroke-width:2.16;stroke:rgb(0,0,0);"></path>
<path d="M455.703,342.317L512.396,342.317L512.396,285.625L455.703,285.625Z" style="fill:rgb(193,193,193);stroke-width:2.16;stroke:rgb(0,0,0);"></path>
<path d="M512.396,342.317L569.089,342.317L569.089,285.625L512.396,285.625Z" style="fill:rgb(193,193,193);stroke-width:2.16;stroke:rgb(0,0,0);"></path>
<path d="M2.16,399.01L58.8529,399.01L58.8529,342.317L2.16,342.317Z" style="fill:rgb(193,193,193);stroke-width:2.16;stroke:rgb(0,0,0);"></path>
<path d="M58.8529,399.01L115.546,399.01L115.546,342.317L58.8529,342.317Z" style="fill:rgb(193,193,193);stroke-width:2.16;stroke:rgb(0,0,0);"></path>
<path d="M115.546,399.01L172.239,399.01L172.239,342.317L115.546,342.317Z" style="fill:rgb(193,193,193);stroke-width:2.16;stroke:rgb(0,0,0);"></path>
<path d="M172.239,399.01L228.932,399.01L228.932,342.317L172.239,342.317Z" style="fill:rgb(193,193,193);stroke-width:2.16;stroke:rgb(0,0,0);"></path>
<path d="M228.932,399.01L285.625,399.01L285.625,342.317L228.932,342.317Z" style="fill:rgb(193,193,193);stroke-width:2.16;stroke:rgb(0,0,0);"></path>
<path d="M285.625,399.01L342.317,399.01L342.317,342.317L285.625,342.317Z" style="fill:rgb(193,193,193);stroke-width:2.16;stroke:rgb(0,0,0);"></path>
<path d="M342.317,399.01L399.01,399.01L399.01,342.317L342.317,342.317Z" style="fill:rgb(193,193,193);stroke-width:2.16;stroke:rgb(0,0,0);"></path>
<path d="M399.01,399.01L455.703,399.01L455.703,342.317L399.01,342.317Z" style="fill:rgb(193,193,193);stroke-width:2.16;stroke:rgb(0,0,0);"></path>
<path d="M455.703,399.01L512.396,399.01L512.396,342.317L455.703,342.317Z" style="fill:rgb(193,193,193);stroke-width:2.16;stroke:rgb(0,0,0);"></path>
<path d="M512.396,399.01L569.089,399.01L569.089,342.317L512.396,342.317Z" style="fill:rgb(193,193,193);stroke-width:2.16;stroke:rgb(0,0,0);"></path>
<path d="M2.16,455.703L58.8529,455.703L58.8529,399.01L2.16,399.01Z" style="fill:rgb(193,193,193);stroke-width:2.16;stroke:rgb(0,0,0);"></path>
<path d="M58.8529,455.703L115.546,455.703L115.546,399.01L58.8529,399.01Z" style="fill:rgb(193,193,193);stroke-width:2.16;stroke:rgb(0,0,0);"></path>
<path d="M115.546,455.703L172.239,455.703L172.239,399.01L115.546,399.01Z" style="fill:rgb(193,193,193);stroke-width:2.16;stroke:rgb(0,0,0);"></path>
<path d="M172.239,455.703L228.932,455.703L228.932,399.01L172.239,399.01Z" style="fill:rgb(193,193,193);stroke-width:2.16;stroke:rgb(0,0,0);"></path>
<path d="M228.932,455.703L285.625,455.703L285.625,399.01L228.932,399.01Z" style="fill:rgb(193,193,193);stroke-width:2.16;stroke:rgb(0,0,0);"></path>
<path d="M285.625,455.703L342.317,455.703L342.317,399.01L285.625,399.01Z" style="fill:rgb(193,193,193);stroke-width:2.16;stroke:rgb(0,0,0);"></path>
<path d="M342.317,455.703L399.01,455.703L399.01,399.01L342.317,399.01Z" style="fill:rgb(193,193,193);stroke-width:2.16;stroke:rgb(0,0,0);"></path>
<path d="M399.01,455.703L455.703,455.703L455.703,399.01L399.01,399.01Z" style="fill:rgb(193,193,193);stroke-width:2.16;stroke:rgb(0,0,0);"></path>
<path d="M455.703,455.703L512.396,455.703L512.396,399.01L455.703,399.01Z" style="fill:rgb(193,193,193);stroke-width:2.16;stroke:rgb(0,0,0);"></path>
<path d="M512.396,455.703L569.089,455.703L569.089,399.01L512.396,399.01Z" style="fill:rgb(193,193,193);stroke-width:2.16;stroke:rgb(0,0,0);"></path>
<path d="M2.16,512.396L58.8529,512.396L58.8529,455.703L2.16,455.703Z" style="fill:rgb(193,193,193);stroke-width:2.16;stroke:rgb(0,0,0);"></path>
<path d="M58.8529,512.396L115.546,512.396L115.546,455.703L58.8529,455.703Z" style="fill:rgb(193,193,193);stroke-width:2.16;stroke:rgb(0,0,0);"></path>
<path d="M115.546,512.396L172.239,512.396L172.239,455.703L115.546,455.703Z" style="fill:rgb(193,193,193);stroke-width:2.16;stroke:rgb(0,0,0);"></path>
<path d="M172.239,512.396L228.932,512.396L228.932,455.703L172.239,455.703Z" style="fill:rgb(193,193,193);stroke-width:2.16;stroke:rgb(0,0,0);"></path>
<path d="M228.932,512.396L285.625,512.396L285.625,455.703L228.932,455.703Z" style="fill:rgb(193,193,193);stroke-width:2.16;stroke:rgb(0,0,0);"></path>
<path d="M285.625,512.396L342.317,512.396L342.317,455.703L285.625,455.703Z" style="fill:rgb(193,193,193);stroke-width:2.16;stroke:rgb(0,0,0);"></path>
<path d="M342.317,512.396L399.01,512.396L399.01,455.703L342.317,455.703Z" style="fill:rgb(193,193,193);stroke-width:2.16;stroke:rgb(0,0,0);"></path>
<path d="M399.01,512.396L455.703,512.396L455.703,455.703L399.01,455.703Z" style="fill:rgb(193,193,193);stroke-width:2.16;stroke:rgb(0,0,0);"></path>
<path d="M455.703,512.396L512.396,512.396L512.396,455.703L455.703,455.703Z" style="fill:rgb(193,193,193);stroke-width:2.16;stroke:rgb(0,0,0);"></path>
<path d="M512.396,512.396L569.089,512.396L569.089,455.703L512.396,455.703Z" style="fill:rgb(193,193,193);stroke-width:2.16;stroke:rgb(0,0,0);"></path>
<path d="M2.16,569.089L58.8529,569.089L58.8529,512.396L2.16,512.396Z" style="fill:rgb(193,193,193);stroke-width:2.16;stroke:rgb(0,0,0);"></path>
<path d="M58.8529,569.089L115.546,569.089L115.546,512.396L58.8529,512.396Z" style="fill:rgb(193,193,193);stroke-width:2.16;stroke:rgb(0,0,0);"></path>
<path d="M115.546,569.089L172.239,569.089L172.239,512.396L115.546,512.396Z" style="fill:rgb(193,193,193);stroke-width:2.16;stroke:rgb(0,0,0);"></path>
<path d="M172.239,569.089L228.932,569.089L228.932,512.396L172.239,512.396Z" style="fill:rgb(193,193,193);stroke-width:2.16;stroke:rgb(0,0,0);"></path>
<path d="M228.932,569.089L285.625,569.089L285.625,512.396L228.932,512.396Z" style="fill:rgb(193,193,193);stroke-width:2.16;stroke:rgb(0,0,0);"></path>
<path d="M285.625,569.089L342.317,569.089L342.317,512.396L285.625,512.396Z" style="fill:rgb(193,193,193);stroke-width:2.16;stroke:rgb(0,0,0);"></path>
<path d="M342.317,569.089L399.01,569.089L399.01,512.396L342.317,512.396Z" style="fill:rgb(193,193,193);stroke-width:2.16;stroke:rgb(0,0,0);"></path>
<path d="M399.01,569.089L455.703,569.089L455.703,512.396L399.01,512.396Z" style="fill:rgb(193,193,193);stroke-width:2.16;stroke:rgb(0,0,0);"></path>
<path d="M455.703,569.089L512.396,569.089L512.396,512.396L455.703,512.396Z" style="fill:rgb(193,193,193);stroke-width:2.16;stroke:rgb(0,0,0);"></path>
<path d="M512.396,569.089L569.089,569.089L569.089,512.396L512.396,512.396Z" style="fill:rgb(193,193,193);stroke-width:2.16;stroke:rgb(0,0,0);"></path>
<path d="M2.16,625.782L58.8529,625.782L58.8529,569.089L2.16,569.089Z" style="fill:rgb(193,193,193);stroke-width:2.16;stroke:rgb(0,0,0);"></path>
<path d="M58.8529,625.782L115.546,625.782L115.546,569.089L58.8529,569.089Z" style="fill:rgb(193,193,193);stroke-width:2.16;stroke:rgb(0,0,0);"></path>
<path d="M115.546,625.782L172.239,625.782L172.239,569.089L115.546,569.089Z" style="fill:rgb(193,193,193);stroke-width:2.16;stroke:rgb(0,0,0);"></path>
<path d="M172.239,625.782L228.932,625.782L228.932,569.089L172.239,569.089Z" style="fill:rgb(193,193,193);stroke-width:2.16;stroke:rgb(0,0,0);"></path>
<path d="M228.932,625.782L285.625,625.782L285.625,569.089L228.932,569.089Z" style="fill:rgb(193,193,193);stroke-width:2.16;stroke:rgb(0,0,0);"></path>
<path d="M285.625,625.782L342.317,625.782L342.317,569.089L285.625,569.089Z" style="fill:rgb(193,193,193);stroke-width:2.16;stroke:rgb(0,0,0);"></path>
<path d="M342.317,625.782L399.01,625.782L399.01,569.089L342.317,569.089Z" style="fill:rgb(193,193,193);stroke-width:2.16;stroke:rgb(0,0,0);"></path>
<path d="M399.01,625.782L455.703,625.782L455.703,569.089L399.01,569.089Z" style="fill:rgb(193,193,193);stroke-width:2.16;stroke:rgb(0,0,0);"></path>
<path d="M455.703,625.782L512.396,625.782L512.396,569.089L455.703,569.089Z" style="fill:rgb(193,193,193);stroke-width:2.16;stroke:rgb(0,0,0);"></path>
<path d="M512.396,625.782L569.089,625.782L569.089,569.089L512.396,569.089Z" style="fill:rgb(193,193,193);stroke-width:2.16;stroke:rgb(0,0,0);"></path>
<path d="M2.16,682.475L58.8529,682.475L58.8529,625.782L2.16,625.782Z" style="fill:rgb(193,193,193);stroke-width:2.16;stroke:rgb(0,0,0);"></path>
<path d="M58.8529,682.475L115.546,682.475L115.546,625.782L58.8529,625.782Z" style="fill:rgb(193,193,193);stroke-width:2.16;stroke:rgb(0,0,0);"></path>
<path d="M115.546,682.475L172.239,682.475L172.239,625.782L115.546,625.782Z" style="fill:rgb(193,193,193);stroke-width:2.16;stroke:rgb(0,0,0);"></path>
<path d="M172.239,682.475L228.932,682.475L228.932,625.782L172.239,625.782Z" style="fill:rgb(193,193,193);stroke-width:2.16;stroke:rgb(0,0,0);"></path>
<path d="M228.932,682.475L285.625,682.475L285.625,625.782L228.932,625.782Z" style="fill:rgb(193,193,193);stroke-width:2.16;stroke:rgb(0,0,0);"></path>
<path d="M285.625,682.475L342.317,682.475L342.317,625.782L285.625,625.782Z" style="fill:rgb(193,193,193);stroke-width:2.16;stroke:rgb(0,0,0);"></path>
<path d="M342.317,682.475L399.01,682.475L399.01,625.782L342.317,625.782Z" style="fill:rgb(193,193,193);stroke-width:2.16;stroke:rgb(0,0,0);"></path>
<path d="M399.01,682.475L455.703,682.475L455.703,625.782L399.01,625.782Z" style="fill:rgb(193,193,193);stroke-width:2.16;stroke:rgb(0,0,0);"></path>
<path d="M455.703,682.475L512.396,682.475L512.396,625.782L455.703,625.782Z" style="fill:rgb(193,193,193);stroke-width:2.16;stroke:rgb(0,0,0);"></path>
<path d="M512.396,682.475L569.089,682.475L569.089,625.782L512.396,625.782Z" style="fill:rgb(193,193,193);stroke-width:2.16;stroke:rgb(0,0,0);"></path>
<path d="M2.16,739.168L58.8529,739.168L58.8529,682.475L2.16,682.475Z" style="fill:rgb(193,193,193);stroke-width:2.16;stroke:rgb(0,0,0);"></path>
<path d="M58.8529,739.168L115.546,739.168L115.546,682.475L58.8529,682.475Z" style="fill:rgb(193,193,193);stroke-width:2.16;stroke:rgb(0,0,0);"></path>
<path d="M115.546,739.168L172.239,739.168L172.239,682.475L115.546,682.475Z" style="fill:rgb(193,193,193);stroke-width:2.16;stroke:rgb(0,0,0);"></path>
<path d="M172.239,739.168L228.932,739.168L228.932,682.475L172.239,682.475Z" style="fill:rgb(193,193,193);stroke-width:2.16;stroke:rgb(0,0,0);"></path>
<path d="M228.932,739.168L285.625,739.168L285.625,682.475L228.932,682.475Z" style="fill:rgb(193,193,193);stroke-width:2.16;stroke:rgb(0,0,0);"></path>
<path d="M285.625,739.168L342.317,739.168L342.317,682.475L285.625,682.475Z" style="fill:rgb(193,193,193);stroke-width:2.16;stroke:rgb(0,0,0);"></path>
<path d="M342.317,739.168L399.01,739.168L399.01,682.475L342.317,682.475Z" style="fill:rgb(193,193,193);stroke-width:2.16;stroke:rgb(0,0,0);"></path>
<path d="M399.01,739.168L455.703,739.168L455.703,682.475L399.01,682.475Z" style="fill:rgb(193,193,193);stroke-width:2.16;stroke:rgb(0,0,0);"></path>
<path d="M455.703,739.168L512.396,739.168L512.396,682.475L455.703,682.475Z" style="fill:rgb(193,193,193);stroke-width:2.16;stroke:rgb(0,0,0);"></path>
<path d="M512.396,739.168L569.089,739.168L569.089,682.475L512.396,682.475Z" style="fill:rgb(193,193,193);stroke-width:2.16;stroke:rgb(0,0,0);"></path>
<path d="M2.16,795.861L58.8529,795.861L58.8529,739.168L2.16,739.168Z" style="fill:rgb(193,193,193);stroke-width:2.16;stroke:rgb(0,0,0);"></path>
<path d="M58.8529,795.861L115.546,795.861L115.546,739.168L58.8529,739.168Z" style="fill:rgb(193,193,193);stroke-width:2.16;stroke:rgb(0,0,0);"></path>
<path d="M115.546,795.861L172.239,795.861L172.239,739.168L115.546,739.168Z" style="fill:rgb(193,193,193);stroke-width:2.16;stroke:rgb(0,0,0);"></path>
<path d="M172.239,795.861L228.932,795.861L228.932,739.168L172.239,739.168Z" style="fill:rgb(193,193,193);stroke-width:2.16;stroke:rgb(0,0,0);"></path>
<path d="M228.932,795.861L285.625,795.861L285.625,739.168L228.932,739.168Z" style="fill:rgb(193,193,193);stroke-width:2.16;stroke:rgb(0,0,0);"></path>
<path d="M285.625,795.861L342.317,795.861L342.317,739.168L285.625,739.168Z" style="fill:rgb(193,193,193);stroke-width:2.16;stroke:rgb(0,0,0);"></path>
<path d="M342.317,795.861L399.01,795.861L399.01,739.168L342.317,739.168Z" style="fill:rgb(193,193,193);stroke-width:2.16;stroke:rgb(0,0,0);"></path>
<path d="M399.01,795.861L455.703,795.861L455.703,739.168L399.01,739.168Z" style="fill:rgb(193,193,193);stroke-width:2.16;stroke:rgb(0,0,0);"></path>
<path d="M455.703,795.861L512.396,795.861L512.396,739.168L455.703,739.168Z" style="fill:rgb(193,193,193);stroke-width:2.16;stroke:rgb(0,0,0);"></path>
<path d="M512.396,795.861L569.089,795.861L569.089,739.168L512.396,739.168Z" style="fill:rgb(193,193,193);stroke-width:2.16;stroke:rgb(0,0,0);"></path>
<path d="M2.16,852.554L58.8529,852.554L58.8529,795.861L2.16,795.861Z" style="fill:rgb(193,193,193);stroke-width:2.16;stroke:rgb(0,0,0);"></path>
<path d="M58.8529,852.554L115.546,852.554L115.546,795.861L58.8529,795.861Z" style="fill:rgb(193,193,193);stroke-width:2.16;stroke:rgb(0,0,0);"></path>
<path d="M115.546,852.554L172.239,852.554L172.239,795.861L115.546,795.861Z" style="fill:rgb(193,193,193);stroke-width:2.16;stroke:rgb(0,0,0);"></path>
<path d="M172.239,852.554L228.932,852.554L228.932,795.861L172.239,795.861Z" style="fill:rgb(193,193,193);stroke-width:2.16;stroke:rgb(0,0,0);"></path>
<path d="M228.932,852.554L285.625,852.554L285.625,795.861L228.932,795.861Z" style="fill:rgb(193,193,193);stroke-width:2.16;stroke:rgb(0,0,0);"></path>
<path d="M285.625,852.554L342.317,852.554L342.317,795.861L285.625,795.861Z" style="fill:rgb(193,193,193);stroke-width:2.16;stroke:rgb(0,0,0);"></path>
<path d="M342.317,852.554L399.01,852.554L399.01,795.861L342.317,795.861Z" style="fill:rgb(193,193,193);stroke-width:2.16;stroke:rgb(0,0,0);"></path>
<path d="M399.01,852.554L455.703,852.554L455.703,795.861L399.01,795.861Z" style="fill:rgb(193,193,193);stroke-width:2.16;stroke:rgb(0,0,0);"></path>
<path d="M455.703,852.554L512.396,852.554L512.396,795.861L455.703,795.861Z" style="fill:rgb(193,193,193);stroke-width:2.16;stroke:rgb(0,0,0);"></path>
<path d="M512.396,852.554L569.089,852.554L569.089,795.861L512.396,795.861Z" style="fill:rgb(193,193,193);stroke-width:2.16;stroke:rgb(0,0,0);"></path>
<path d="M2.16,909.247L58.8529,909.247L58.8529,852.554L2.16,852.554Z" style="fill:rgb(193,193,193);stroke-width:2.16;stroke:rgb(0,0,0);"></path>
<path d="M58.8529,909.247L115.546,909.247L115.546,852.554L58.8529,852.554Z" style="fill:rgb(193,193,193);stroke-width:2.16;stroke:rgb(0,0,0);"></path>
<path d="M115.546,909.247L172.239,909.247L172.239,852.554L115.546,852.554Z" style="fill:rgb(193,193,193);stroke-width:2.16;stroke:rgb(0,0,0);"></path>
<path d="M172.239,909.247L228.932,909.247L228.932,852.554L172.239,852.554Z" style="fill:rgb(193,193,193);stroke-width:2.16;stroke:rgb(0,0,0);"></path>
<path d="M228.932,909.247L285.625,909.247L285.625,852.554L228.932,852.554Z" style="fill:rgb(193,193,193);stroke-width:2.16;stroke:rgb(0,0,0);"></path>
<path d="M285.625,909.247L342.317,909.247L342.317,852.554L285.625,852.554Z" style="fill:rgb(193,193,193);stroke-width:2.16;stroke:rgb(0,0,0);"></path>
<path d="M342.317,909.247L399.01,909.247L399.01,852.554L342.317,852.554Z" style="fill:rgb(193,193,193);stroke-width:2.16;stroke:rgb(0,0,0);"></path>
<path d="M399.01,909.247L455.703,909.247L455.703,852.554L399.01,852.554Z" style="fill:rgb(193,193,193);stroke-width:2.16;stroke:rgb(0,0,0);"></path>
<path d="M455.703,909.247L512.396,909.247L512.396,852.554L455.703,852.554Z" style="fill:rgb(193,193,193);stroke-width:2.16;stroke:rgb(0,0,0);"></path>
<path d="M512.396,909.247L569.089,909.247L569.089,852.554L512.396,852.554Z" style="fill:rgb(193,193,193);stroke-width:2.16;stroke:rgb(0,0,0);"></path>
<path d="M2.16,965.94L58.8529,965.94L58.8529,909.247L2.16,909.247Z" style="fill:rgb(193,193,193);stroke-width:2.16;stroke:rgb(0,0,0);"></path>
<path d="M58.8529,965.94L115.546,965.94L115.546,909.247L58.8529,909.247Z" style="fill:rgb(241,54,54);stroke-width:2.16;stroke:rgb(0,0,0);"></path>
<path d="M115.546,965.94L172.239,965.94L172.239,909.247L115.546,909.247Z" style="fill:rgb(193,193,193);stroke-width:2.16;stroke:rgb(0,0,0);"></path>
<path d="M172.239,965.94L228.932,965.94L228.932,909.247L172.239,909.247Z" style="fill:rgb(193,193,193);stroke-width:2.16;stroke:rgb(0,0,0);"></path>
<path d="M228.932,965.94L285.625,965.94L285.625,909.247L228.932,909.247Z" style="fill:rgb(193,193,193);stroke-width:2.16;stroke:rgb(0,0,0);"></path>
<path d="M285.625,965.94L342.317,965.94L342.317,909.247L285.625,909.247Z" style="fill:rgb(103,237,245);stroke-width:2.16;stroke:rgb(0,0,0);"></path>
<path d="M342.317,965.94L399.01,965.94L399.01,909.247L342.317,909.247Z" style="fill:rgb(193,193,193);stroke-width:2.16;stroke:rgb(0,0,0);"></path>
<path d="M399.01,965.94L455.703,965.94L455.703,909.247L399.01,909.247Z" style="fill:rgb(135,206,235);stroke-width:2.16;stroke:rgb(0,0,0);"></path>
<path d="M455.703,965.94L512.396,965.94L512.396,909.247L455.703,909.247Z" style="fill:rgb(135,206,235);stroke-width:2.16;stroke:rgb(0,0,0);"></path>
<path d="M512.396,965.94L569.089,965.94L569.089,909.247L512.396,909.247Z" style="fill:rgb(135,206,235);stroke-width:2.16;stroke:rgb(0,0,0);"></path>
<path d="M2.16,1022.63L58.8529,1022.63L58.8529,965.94L2.16,965.94Z" style="fill:rgb(241,54,54);stroke-width:2.16;stroke:rgb(0,0,0);"></path>
<path d="M58.8529,1022.63L115.546,1022.63L115.546,965.94L58.8529,965.94Z" style="fill:rgb(241,54,54);stroke-width:2.16;stroke:rgb(0,0,0);"></path>
<path d="M115.546,1022.63L172.239,1022.63L172.239,965.94L115.546,965.94Z" style="fill:rgb(57,229,114);stroke-width:2.16;stroke:rgb(0,0,0);"></path>
<path d="M172.239,1022.63L228.932,1022.63L228.932,965.94L172.239,965.94Z" style="fill:rgb(193,193,193);stroke-width:2.16;stroke:rgb(0,0,0);"></path>
<path d="M228.932,1022.63L285.625,1022.63L285.625,965.94L228.932,965.94Z" style="fill:rgb(193,193,193);stroke-width:2.16;stroke:rgb(0,0,0);"></path>
<path d="M285.625,1022.63L342.317,1022.63L342.317,965.94L285.625,965.94Z" style="fill:rgb(103,237,245);stroke-width:2.16;stroke:rgb(0,0,0);"></path>
<path d="M342.317,1022.63L399.01,1022.63L399.01,965.94L342.317,965.94Z" style="fill:rgb(193,193,193);stroke-width:2.16;stroke:rgb(0,0,0);"></path>
<path d="M399.01,1022.63L455.703,1022.63L455.703,965.94L399.01,965.94Z" style="fill:rgb(255,242,35);stroke-width:2.16;stroke:rgb(0,0,0);"></path>
<path d="M455.703,1022.63L512.396,1022.63L512.396,965.94L455.703,965.94Z" style="fill:rgb(255,242,35);stroke-width:2.16;stroke:rgb(0,0,0);"></path>
<path d="M512.396,1022.63L569.089,1022.63L569.089,965.94L512.396,965.94Z" style="fill:rgb(135,206,235);stroke-width:2.16;stroke:rgb(0,0,0);"></path>
<path d="M2.16,1079.33L58.8529,1079.33L58.8529,1022.63L2.16,1022.63Z" style="fill:rgb(241,54,54);stroke-width:2.16;stroke:rgb(0,0,0);"></path>
<path d="M58.8529,1079.33L115.546,1079.33L115.546,1022.63L58.8529,1022.63Z" style="fill:rgb(201,54,241);stroke-width:2.16;stroke:rgb(0,0,0);"></path>
<path d="M115.546,1079.33L172.239,1079.33L172.239,1022.63L115.546,1022.63Z" style="fill:rgb(57,229,114);stroke-width:2.16;stroke:rgb(0,0,0);"></path>
<path d="M172.239,1079.33L228.932,1079.33L228.932,1022.63L172.239,1022.63Z" style="fill:rgb(57,229,114);stroke-width:2.16;stroke:rgb(0,0,0);"></path>
<path d="M228.932,1079.33L285.625,1079.33L285.625,1022.63L228.932,1022.63Z" style="fill:rgb(193,193,193);stroke-width:2.16;stroke:rgb(0,0,0);"></path>
<path d="M285.625,1079.33L342.317,1079.33L342.317,1022.63L285.625,1022.63Z" style="fill:rgb(103,237,245);stroke-width:2.16;stroke:rgb(0,0,0);"></path>
<path d="M342.317,1079.33L399.01,1079.33L399.01,1022.63L342.317,1022.63Z" style="fill:rgb(193,193,193);stroke-width:2.16;stroke:rgb(0,0,0);"></path>
<path d="M399.01,1079.33L455.703,1079.33L455.703,1022.63L399.01,1022.63Z" style="fill:rgb(255,242,35);stroke-width:2.16;stroke:rgb(0,0,0);"></path>
<path d="M455.703,1079.33L512.396,1079.33L512.396,1022.63L455.703,1022.63Z" style="fill:rgb(255,242,35);stroke-width:2.16;stroke:rgb(0,0,0);"></path>
<path d="M512.396,1079.33L569.089,1079.33L569.089,1022.63L512.396,1022.63Z" style="fill:rgb(251,187,17);stroke-width:2.16;stroke:rgb(0,0,0);"></path>
<path d="M2.16,1136.02L58.8529,1136.02L58.8529,1079.33L2.16,1079.33Z" style="fill:rgb(201,54,241);stroke-width:2.16;stroke:rgb(0,0,0);"></path>
<path d="M58.8529,1136.02L115.546,1136.02L115.546,1079.33L58.8529,1079.33Z" style="fill:rgb(201,54,241);stroke-width:2.16;stroke:rgb(0,0,0);"></path>
<path d="M115.546,1136.02L172.239,1136.02L172.239,1079.33L115.546,1079.33Z" style="fill:rgb(201,54,241);stroke-width:2.16;stroke:rgb(0,0,0);"></path>
<path d="M172.239,1136.02L228.932,1136.02L228.932,1079.33L172.239,1079.33Z" style="fill:rgb(57,229,114);stroke-width:2.16;stroke:rgb(0,0,0);"></path>
<path d="M228.932,1136.02L285.625,1136.02L285.625,1079.33L228.932,1079.33Z" style="fill:rgb(193,193,193);stroke-width:2.16;stroke:rgb(0,0,0);"></path>
<path d="M285.625,1136.02L342.317,1136.02L342.317,1079.33L285.625,1079.33Z" style="fill:rgb(103,237,245);stroke-width:2.16;stroke:rgb(0,0,0);"></path>
<path d="M342.317,1136.02L399.01,1136.02L399.01,1079.33L342.317,1079.33Z" style="fill:rgb(193,193,193);stroke-width:2.16;stroke:rgb(0,0,0);"></path>
<path d="M399.01,1136.02L455.703,1136.02L455.703,1079.33L399.01,1079.33Z" style="fill:rgb(251,187,17);stroke-width:2.16;stroke:rgb(0,0,0);"></path>
<path d="M455.703,1136.02L512.396,1136.02L512.396,1079.33L455.703,1079.33Z" style="fill:rgb(251,187,17);stroke-width:2.16;stroke:rgb(0,0,0);"></path>
<path d="M512.396,1136.02L569.089,1136.02L569.089,1079.33L512.396,1079.33Z" style="fill:rgb(251,187,17);stroke-width:2.16;stroke:rgb(0,0,0);"></path>
</svg>
